<?xml version="1.0" encoding="utf-8"?><svg xmlns="http://www.w3.org/2000/svg" xmlns:xlink="http://www.w3.org/1999/xlink"><symbol fill="none" viewBox="0 0 22 27" id="addr-mark" xmlns="http://www.w3.org/2000/svg"><path d="M11 27v-.1c-.314 0-.624-.124-.845-.36h0a1.099 1.099 0 0 1-.078-.09v-.002L2.26 16.48h0l-.005-.007v-.001C.902 14.765.1 12.646.1 10.352.1 4.668 5.001.1 11 .1c5.999 0 10.9 4.57 10.9 10.251 0 2.295-.803 4.415-2.155 6.121h-.001l-.005.008h0l-7.815 9.968-.001.002c-.024.03-.05.061-.078.09h0c-.221.236-.53.36-.845.36v.1zm0 0c.34 0 .677-.135.918-.39L2.183 16.54l7.815 9.969A1.261 1.261 0 0 0 11 27zM4.093 15.182h.001l6.827 8.71a.1.1 0 0 0 .158 0l6.827-8.71h0l.015-.018s0 0 0 0c1.07-1.346 1.7-3.01 1.7-4.813 0-4.436-3.838-8.07-8.621-8.07s-8.621 3.634-8.621 8.07c0 1.804.63 3.468 1.7 4.813l.079-.062-.079.062.014.018zm2.717-4.83C6.81 8.133 8.682 6.33 11 6.33c2.318 0 4.19 1.804 4.19 4.021 0 2.217-1.872 4.022-4.19 4.022-2.318 0-4.19-1.804-4.19-4.022zM11 8.511c-1.051 0-1.91.82-1.91 1.84 0 1.019.859 1.839 1.91 1.839 1.052 0 1.91-.82 1.91-1.84S12.052 8.51 11 8.51z" fill="#169953" stroke="#F5F7F7" stroke-width=".2" stroke-miterlimit="10" stroke-linecap="round" stroke-linejoin="round"/></symbol><symbol fill="none" viewBox="0 0 13 26" id="ask" xmlns="http://www.w3.org/2000/svg"><path d="M.172 3.303c.374-.33.78-.644 1.22-.941a9.14 9.14 0 0 1 1.453-.776 8.59 8.59 0 0 1 1.682-.511A9.206 9.206 0 0 1 6.492.877c.957 0 1.826.132 2.607.396.792.264 1.468.644 2.03 1.139a4.96 4.96 0 0 1 1.303 1.765c.308.693.462 1.469.462 2.327 0 .836-.121 1.562-.363 2.178a6.147 6.147 0 0 1-.907 1.583 6.727 6.727 0 0 1-1.205 1.172l-1.221.94c-.385.287-.72.572-1.006.858-.276.276-.44.589-.496.941l-.379 2.409H4.528l-.281-2.69c-.066-.516.006-.967.215-1.352.22-.396.506-.754.857-1.073.364-.33.765-.644 1.205-.94.44-.308.853-.638 1.237-.99a5.25 5.25 0 0 0 .958-1.205c.264-.451.396-.985.396-1.6a2.33 2.33 0 0 0-.232-1.057 2.22 2.22 0 0 0-.61-.808 2.69 2.69 0 0 0-.957-.528 3.736 3.736 0 0 0-1.188-.181c-.627 0-1.16.071-1.6.214a5.481 5.481 0 0 0-1.106.462c-.297.165-.55.319-.759.462-.209.132-.396.198-.561.198-.396 0-.682-.165-.858-.495l-1.073-1.7zM3.29 22.755c0-.341.06-.666.181-.974.132-.308.308-.572.528-.791a2.528 2.528 0 0 1 3.548 0 2.446 2.446 0 0 1 .743 1.765c0 .352-.067.682-.199.99a2.413 2.413 0 0 1-.544.776c-.22.22-.484.39-.792.511a2.37 2.37 0 0 1-.973.198 2.48 2.48 0 0 1-.99-.198A2.287 2.287 0 0 1 4 24.521a2.55 2.55 0 0 1-.529-.775 2.683 2.683 0 0 1-.181-.99z" fill="#169953"/></symbol><symbol fill="none" viewBox="0 0 27 29" id="bag" xmlns="http://www.w3.org/2000/svg"><path d="M24.371 8.075a.906.906 0 0 0-.902-.825h-4.532V5.437A5.442 5.442 0 0 0 13.5 0a5.443 5.443 0 0 0-5.438 5.438V7.25h-4.53c-.47 0-.86.358-.903.825L.816 28.012A.905.905 0 0 0 1.72 29h23.56a.903.903 0 0 0 .67-.295.911.911 0 0 0 .233-.693L24.37 8.075zM9.875 5.438c0-2 1.627-3.625 3.625-3.625a3.63 3.63 0 0 1 3.625 3.625V7.25h-7.25V5.437zm-7.163 21.75L4.359 9.063h3.704v2.063c-.54.315-.907.893-.907 1.562a1.813 1.813 0 0 0 3.625 0c0-.67-.366-1.248-.906-1.562V9.063h7.25v2.063c-.54.315-.906.892-.906 1.562a1.813 1.813 0 0 0 3.625 0c0-.67-.366-1.248-.907-1.562V9.063h3.704l1.647 18.124H2.712z" fill="#000"/></symbol><symbol viewBox="0 0 14.2 19.9" id="booklet" xmlns="http://www.w3.org/2000/svg"><path class="dst0" d="M10.5 0c.2-.1.5.1.5.3v1.9c0 .2-.2.4-.4.4s-.4-.2-.4-.4V1L2.8 3.3h10.7c.4 0 .7.3.7.7v15.3c0 .3-.2.5-.5.5H.7c-.4 0-.7-.3-.7-.7V3.9c0-.3.2-.6.5-.7l10-3.2zM.8 19h12.5V4.2H.8V19z"/></symbol><symbol viewBox="0 0 15 10.8" id="burger" xmlns="http://www.w3.org/2000/svg"><path class="est0" d="M.4 0h14.2c.2 0 .4.2.4.4s-.2.4-.4.4H.4C.2.8 0 .6 0 .4S.2 0 .4 0zm0 5h14.2c.2 0 .4.2.4.4s-.2.4-.4.4H.4c-.2 0-.4-.2-.4-.4S.2 5 .4 5zm0 5h14.2c.2 0 .4.2.4.4s-.2.4-.4.4H.4c-.2 0-.4-.2-.4-.4s.2-.4.4-.4z"/></symbol><symbol id="calendar" viewBox="0 0 49.9 49.9" xml:space="preserve" xmlns="http://www.w3.org/2000/svg"><style>.fst0{fill:#fff}</style><path class="fst0" d="M41.6 5.6c0-.1 0-.1 0 0 0-.1-.1-.2-.1-.2l-.1-.1-.1-.1-.1-.1s-.1 0-.1-.1h-4.5c-.2-2.9-1.6-5-3.3-5S30.2 2.1 30 5h-1.7c-.2-2.9-1.6-5-3.3-5s-3.1 2.1-3.3 5H20c-.2-2.9-1.6-5-3.3-5s-3.1 2.1-3.3 5h-1.7c-.2-2.9-1.6-5-3.3-5C6.6-.1 5.2 2 5 4.9H.8c-.4 0-.8.4-.8.8V49c0 .5.4.9.8.9h40c.5 0 .8-.4.8-.8v-2.5h7.5c.3 0 .5-.1.6-.3.2-.2.2-.4.2-.7l-8.3-40zm-8.3-4c.6 0 1.4 1.3 1.6 3.3h-3.3c.3-2.1 1.1-3.3 1.7-3.3zm-8.3 0c.6 0 1.4 1.3 1.6 3.3h-3.3c.3-2.1 1.1-3.3 1.7-3.3zm-8.3 0c.6 0 1.4 1.3 1.6 3.3H15c.2-2.1 1.1-3.3 1.7-3.3zm-8.4 0c.6 0 1.5 1.2 1.7 3.3H6.7c.2-2.1 1-3.3 1.6-3.3zm-6.6 5H5c.2 2.9 1.6 5 3.3 5 .5 0 .8-.4.8-.8 0-.5-.4-.8-.8-.8-.6 0-1.4-1.3-1.6-3.3h6.7c.2 2.9 1.6 5 3.3 5 .5 0 .8-.4.8-.8 0-.5-.4-.8-.8-.8-.6 0-1.4-1.3-1.6-3.3h6.7c.2 2.9 1.6 5 3.3 5 .5 0 .8-.4.8-.8 0-.5-.4-.8-.8-.8-.6 0-1.4-1.3-1.6-3.3H30c.2 2.9 1.6 5 3.3 5 .5 0 .8-.4.8-.8 0-.5-.4-.8-.8-.8-.6 0-1.4-1.3-1.6-3.3H40v7.9H1.7V6.6zM40 48.2H1.7V16.6H40v31.6zm1.7-3.3V13.8l6.4 31.1h-6.4z"/><path class="fst0" d="M18.3 29.9H15c-.5 0-.8.4-.8.8V34c0 .5.4.8.8.8h3.3c.5 0 .8-.4.8-.8v-3.3c.1-.4-.3-.8-.8-.8zm-.8 3.3h-1.7v-1.7h1.7v1.7zm9.2-3.3h-3.3c-.5 0-.8.4-.8.8V34c0 .5.4.8.8.8h3.3c.5 0 .8-.4.8-.8v-3.3c0-.4-.4-.8-.8-.8zm-.9 3.3h-1.7v-1.7h1.7v1.7zM10 29.9H6.7c-.5 0-.8.4-.8.8V34c0 .5.4.8.8.8H10c.5 0 .8-.4.8-.8v-3.3c0-.4-.3-.8-.8-.8zm-.8 3.3H7.5v-1.7h1.7v1.7zm9.1 5H15c-.5 0-.8.4-.8.8v3.3c0 .5.4.8.8.8h3.3c.5 0 .8-.4.8-.8V39c.1-.4-.3-.8-.8-.8zm-.8 3.4h-1.7v-1.7h1.7v1.7zm9.2-3.4h-3.3c-.5 0-.8.4-.8.8v3.3c0 .5.4.8.8.8h3.3c.5 0 .8-.4.8-.8V39c0-.4-.4-.8-.8-.8zm-.9 3.4h-1.7v-1.7h1.7v1.7zM10 38.2H6.7c-.5 0-.8.4-.8.8v3.3c0 .5.4.8.8.8H10c.5 0 .8-.4.8-.8V39c0-.4-.3-.8-.8-.8zm-.8 3.4H7.5v-1.7h1.7v1.7zm9.1-20H15c-.5 0-.8.4-.8.8v3.3c0 .5.4.8.8.8h3.3c.5 0 .8-.4.8-.8v-3.3c.1-.5-.3-.8-.8-.8zm-.8 3.3h-1.7v-1.7h1.7v1.7zm9.2-3.3h-3.3c-.5 0-.8.4-.8.8v3.3c0 .5.4.8.8.8h3.3c.5 0 .8-.4.8-.8v-3.3c0-.5-.4-.8-.8-.8zm-.9 3.3h-1.7v-1.7h1.7v1.7zm9.2 5h-3.3c-.5 0-.8.4-.8.8V34c0 .5.4.8.8.8H35c.5 0 .8-.4.8-.8v-3.3c0-.4-.3-.8-.8-.8zm-.8 3.3h-1.7v-1.7h1.7v1.7zm.8 5h-3.3c-.5 0-.8.4-.8.8v3.3c0 .5.4.8.8.8H35c.5 0 .8-.4.8-.8V39c0-.4-.3-.8-.8-.8zm-.8 3.4h-1.7v-1.7h1.7v1.7zm.8-20h-3.3c-.5 0-.8.4-.8.8v3.3c0 .5.4.8.8.8H35c.5 0 .8-.4.8-.8v-3.3c0-.5-.3-.8-.8-.8zm-.8 3.3h-1.7v-1.7h1.7v1.7zM10 21.6H6.7c-.5 0-.8.4-.8.8v3.3c0 .5.4.8.8.8H10c.5 0 .8-.4.8-.8v-3.3c0-.5-.3-.8-.8-.8zm-.8 3.3H7.5v-1.7h1.7v1.7z"/></symbol><symbol fill="none" viewBox="0 0 25 24" id="cart" xmlns="http://www.w3.org/2000/svg"><path fill-rule="evenodd" clip-rule="evenodd" d="M0 1.016C0 .455.465 0 1.04 0h2.597c.571 0 1.035.451 1.039 1.01.062.076.114.162.153.257l.725 1.782h18.038c.083 0 .202.002.327.02.114.015.327.055.54.19.254.16.45.416.517.74.056.273.002.509-.044.65v.002l-2.804 8.834-.002.004a2.15 2.15 0 0 1-.379.692 1.68 1.68 0 0 1-.36.329c-.149.1-.4.226-.725.226H8.566l-.955 2.54h13.69c.574 0 1.039.455 1.039 1.016 0 .561-.465 1.016-1.04 1.016h-.71a2.93 2.93 0 0 1 .582 1.753A2.946 2.946 0 0 1 18.219 24a2.946 2.946 0 0 1-2.953-2.94c0-.65.215-1.26.582-1.752h-3.394c.368.493.583 1.102.583 1.753A2.946 2.946 0 0 1 10.084 24a2.946 2.946 0 0 1-2.953-2.94c0-.65.215-1.26.583-1.752h-1.48a1.028 1.028 0 0 1-1.039-1.016c0-.082.01-.162.029-.238a.991.991 0 0 1 .057-.468l1.45-3.859.021-.06a2.453 2.453 0 0 1-.098-.256v-.002l-2.807-8.67a1.385 1.385 0 0 1-.061-.536l-.884-2.17H1.04A1.03 1.03 0 0 1 0 1.016zm6.139 4.065l2.459 7.601.044.021H20.2l2.42-7.622H6.138zm16.81-1.038v.003-.003zm-12.865 16.11a.892.892 0 0 0-.875.908c0 .526.418.907.875.907s.875-.38.875-.907a.892.892 0 0 0-.875-.907zm8.135 0a.892.892 0 0 0-.875.908c0 .527.418.907.875.907s.875-.38.875-.907a.891.891 0 0 0-.875-.907z" fill="#169953"/></symbol><symbol id="clock" viewBox="0 0 50 50" xml:space="preserve" xmlns="http://www.w3.org/2000/svg"><style>.hst1{fill:#fff}</style><defs><path id="hSVGID_1_" d="M0 0h50v50H0z"/></defs><clipPath id="hSVGID_2_"><use xlink:href="#hSVGID_1_" overflow="visible"/></clipPath><g clip-path="url(#hSVGID_2_)"><path class="hst1" d="M25 50C11.2 50 0 38.8 0 25S11.2 0 25 0s25 11.2 25 25-11.2 25-25 25zm0-48.5C12.1 1.5 1.5 12.1 1.5 25S12 48.5 25 48.5C37.9 48.5 48.5 38 48.5 25 48.5 12.1 37.9 1.5 25 1.5z"/><path class="hst1" d="M32.3 34.5c-.2 0-.4-.1-.6-.3l-7.3-8.8c-.1-.1-.2-.3-.2-.5V10.4c0-.4.3-.8.8-.8s.8.3.8.8v14.3l7.1 8.6c.3.3.2.8-.1 1.1-.2.1-.4.1-.5.1z"/></g></symbol><symbol fill="none" viewBox="0 0 15 15" id="close" xmlns="http://www.w3.org/2000/svg"><path fill-rule="evenodd" clip-rule="evenodd" d="M6.5 7.5L0 14l.707.707 6.5-6.5 6.652 6.652.707-.707L7.914 7.5 14.707.707 14 0 7.207 6.793l-6.5-6.5L0 1l6.5 6.5z" fill="#E30613"/></symbol><symbol fill="none" viewBox="0 0 12 12" id="delete" xmlns="http://www.w3.org/2000/svg"><g clip-path="url(#jclip0)"><path d="M11.594 2.364L7.958 6l3.636 3.637a1.385 1.385 0 0 1-1.957 1.958L6 7.958l-3.637 3.637a1.38 1.38 0 0 1-.978.405 1.385 1.385 0 0 1-.979-2.364L4.042 6 .405 2.364A1.385 1.385 0 0 1 2.363.406L6 4.042 9.636.406a1.385 1.385 0 0 1 1.958 1.958z" fill="#fff"/></g><defs><clipPath id="jclip0"><path fill="#fff" d="M0 0h12v12H0z"/></clipPath></defs></symbol><symbol viewBox="0 0 80.6 155.1" id="facebook" xmlns="http://www.w3.org/2000/svg"><path class="kst0" d="M52.3 155.1V84.4H76l3.6-27.6H52.3V39.2c0-8 2.2-13.4 13.7-13.4h14.6V1.1C78 .8 69.4 0 59.3 0 38.2 0 23.8 12.9 23.8 36.5v20.3H0v27.6h23.8v70.8h28.5z"/></symbol><symbol viewBox="0 0 20 19.2" id="house" xmlns="http://www.w3.org/2000/svg"><path class="lst0" d="M17.1 19.2h-5c-.2 0-.4-.2-.4-.4v-5.4H8.3v5.4c0 .2-.2.4-.4.4h-5c-.2 0-.4-.2-.4-.4v-8.3c0-.2.2-.4.4-.4s.4.2.4.4v7.9h4.2V13c0-.2.2-.4.4-.4h4.2c.2 0 .4.2.4.4v5.4h4.2v-7.5c0-.2.2-.4.4-.4s.4.2.4.4v7.9c0 .2-.2.4-.4.4zm2.5-8.8c-.1 0-.2 0-.3-.1L10 1 .7 10.3c-.2.2-.4.2-.6 0-.1-.2-.1-.4 0-.6L9.7.1c.2-.2.4-.2.6 0l9.6 9.6c.2.2.2.4 0 .6-.1.1-.2.1-.3.1zm-3.3-5.8c-.2 0-.4-.2-.4-.4V1.7h-2.5c-.2 0-.4-.2-.4-.4s.2-.4.4-.4h2.9c.2 0 .4.2.4.4v2.9c0 .2-.2.4-.4.4z"/></symbol><symbol fill="none" viewBox="0 0 22 21" id="logout" xmlns="http://www.w3.org/2000/svg"><path fill-rule="evenodd" clip-rule="evenodd" d="M7.343 1.05c0 .58-.493 1.05-1.1 1.05H2.2v16.8h4.043c.607 0 1.1.47 1.1 1.05 0 .58-.493 1.05-1.1 1.05H1.1C.492 21 0 20.53 0 19.95V1.05C0 .47.492 0 1.1 0h5.143c.607 0 1.1.47 1.1 1.05z" fill="#169953"/><path fill-rule="evenodd" clip-rule="evenodd" d="M21.904 10.01c.177.379.105.822-.185 1.13l-6.705 7.148c-.405.432-1.1.469-1.553.082a1.017 1.017 0 0 1-.086-1.483l5.056-5.389-11.927.04c-.608.002-1.102-.466-1.104-1.046-.002-.58.489-1.051 1.096-1.054l14.4-.048c.435-.001.83.242 1.008.62z" fill="#169953"/><path fill-rule="evenodd" clip-rule="evenodd" d="M21.64 11.217c-.45.39-1.145.358-1.554-.07l-6.692-7.028a1.017 1.017 0 0 1 .074-1.483 1.137 1.137 0 0 1 1.554.07l6.692 7.028a1.017 1.017 0 0 1-.074 1.483z" fill="#169953"/></symbol><symbol fill="none" viewBox="0 0 22 22" id="person" xmlns="http://www.w3.org/2000/svg"><path fill-rule="evenodd" clip-rule="evenodd" d="M3.386 12.337c1.904-1.142 4.472-1.817 7.257-1.817 2.786 0 5.354.675 7.258 1.817 1.884 1.131 3.266 2.826 3.266 4.88a.957.957 0 1 1-1.913 0c0-1.117-.76-2.292-2.338-3.24-1.559-.934-3.774-1.544-6.273-1.544-2.498 0-4.714.61-6.272 1.545-1.578.947-2.338 2.121-2.338 3.238a.957.957 0 1 1-1.913 0c0-2.053 1.381-3.748 3.266-4.879z" fill="#169953"/><path fill-rule="evenodd" clip-rule="evenodd" d="M10.643 1.913a4.305 4.305 0 1 0 0 8.61 4.305 4.305 0 0 0 0-8.61zM4.425 6.22a6.219 6.219 0 1 1 12.437 0 6.219 6.219 0 0 1-12.437 0zM.957 16.26c.528 0 .956.428.956.956v2.87h17.221v-2.87a.957.957 0 1 1 1.914 0v3.14c0 .224-.035.534-.16.826-.115.269-.456.818-1.17.818H1.568c-.3 0-.546-.11-.708-.208a1.82 1.82 0 0 1-.422-.36C.247 21.21 0 20.821 0 20.356v-3.14c0-.529.428-.957.957-.957z" fill="#169953"/></symbol><symbol fill="none" viewBox="0 0 19 29" id="scoop" xmlns="http://www.w3.org/2000/svg"><path fill-rule="evenodd" clip-rule="evenodd" d="M5.272 7.308C5.272 4.096 8.124 1 11.679 1c3.403 0 6.408 2.489 6.408 5.845 0 .116-.016.227-.046.333.03.105.046.217.046.332v13.425c0 .146-.026.285-.072.414-.553 3.98-4.213 6.933-8.472 6.933-4.258 0-7.918-2.953-8.471-6.933A1.218 1.218 0 0 1 1 20.935V9.951a1.22 1.22 0 0 1 2.441 0v10.35c0 2.97 2.638 5.54 6.102 5.54 3.464 0 6.103-2.57 6.103-5.54V7.51c0-.115.016-.227.045-.332a1.222 1.222 0 0 1-.045-.333c0-1.752-1.641-3.404-3.967-3.404-2.173 0-3.966 1.97-3.966 3.867 0 .142-.025.28-.07.406.045.127.07.264.07.406v10.985a1.831 1.831 0 0 0 3.661 0V9.95a1.22 1.22 0 1 1 2.441 0v9.154a4.272 4.272 0 0 1-8.543 0V8.12c0-.142.024-.279.069-.406a1.218 1.218 0 0 1-.07-.406z" fill="#169953"/><path d="M18.04 7.178l-.095-.027a.1.1 0 0 0 0 .054l.096-.027zm-.025 14.171l-.094-.034a.1.1 0 0 0-.005.02l.099.014zm-16.943 0l.1-.013a.1.1 0 0 0-.006-.02l-.094.033zm14.62-14.171l.096.027a.098.098 0 0 0 0-.054l-.097.027zm-8.049.536l-.094-.033a.1.1 0 0 0 0 .066l.094-.033zm3.731 11.392h.1-.1zm0-.002h.1-.1zm0-9.153h-.1.1zM5.341 7.714l.094.033a.1.1 0 0 0 0-.066l-.094.033zM11.679.9C8.067.9 5.172 4.043 5.172 7.308h.2C5.372 4.15 8.18 1.1 11.679 1.1V.9zm6.508 5.945C18.187 3.423 15.126.9 11.679.9v.2c3.36 0 6.308 2.455 6.308 5.745h.2zm-.05.36c.032-.114.05-.235.05-.36h-.2c0 .106-.015.209-.042.306l.192.054zm.05.305c0-.124-.018-.245-.05-.36l-.192.055c.027.097.042.2.042.305h.2zm0 12.792V7.51h-.2v12.792h.2zm0 .633v-.633h-.2v.633h.2zm-.078.448c.05-.14.078-.29.078-.448h-.2c0 .134-.024.262-.066.38l.188.068zm-8.566 6.999c4.303 0 8.01-2.984 8.57-7.019l-.197-.027c-.545 3.924-4.158 6.846-8.373 6.846v.2zm-8.57-7.019c.56 4.035 4.268 7.019 8.57 7.019v-.2c-4.214 0-7.827-2.922-8.372-6.846l-.198.027zM.9 20.935c0 .157.027.308.078.448l.188-.068a1.118 1.118 0 0 1-.066-.38H.9zm0-.633v.633h.2v-.633H.9zM.9 9.95V20.3h.2V9.952H.9zm1.32-1.32C1.491 8.63.9 9.22.9 9.95h.2c0-.619.502-1.12 1.12-1.12v-.2zm1.32 1.32c.001-.73-.59-1.32-1.32-1.32v.2c.62 0 1.12.501 1.12 1.12h.201zm.001 10.35V9.952h-.2v10.35h.2zm6.002 5.44c-3.415 0-6.002-2.532-6.002-5.44h-.2c0 3.032 2.69 5.64 6.202 5.64v-.2zm6.003-5.44c0 2.908-2.587 5.44-6.003 5.44v.2c3.512 0 6.203-2.608 6.203-5.64h-.2zm0-12.791v12.792h.2V7.51h-.2zm.05-.36c-.033.115-.05.236-.05.36h.2c0-.106.014-.208.042-.305l-.193-.054zm-.05-.305c0 .125.017.246.05.36l.192-.054a1.123 1.123 0 0 1-.042-.306h-.2zM11.679 3.54c2.28 0 3.867 1.617 3.867 3.304h.2c0-1.817-1.696-3.504-4.067-3.504v.2zM7.813 7.308c0-.918.434-1.86 1.139-2.575.704-.713 1.671-1.192 2.727-1.192v-.2c-1.117 0-2.134.506-2.87 1.252-.734.745-1.196 1.736-1.196 2.715h.2zm-.075.44c.048-.138.075-.286.075-.44h-.2c0 .13-.023.256-.064.373l.189.066zm.075.372c0-.154-.027-.302-.075-.44l-.189.067c.041.117.064.242.064.373h.2zm0 10.985V8.12h-.2v10.985h.2zm1.73 1.73a1.73 1.73 0 0 1-1.73-1.73h-.2a1.93 1.93 0 0 0 1.93 1.93v-.2zm1.731-1.73a1.73 1.73 0 0 1-1.73 1.73v.2a1.93 1.93 0 0 0 1.93-1.93h-.2zm0 0h.2-.2zm.2 0V9.95h-.2v9.154h.2zm0-9.154c0-.619.502-1.12 1.12-1.12v-.2c-.729 0-1.32.59-1.32 1.32h.2zm1.12-1.12c.62 0 1.121.501 1.121 1.12h.2c0-.73-.591-1.32-1.32-1.32v.2zm1.121 1.12v9.154h.2V9.95h-.2zM9.543 23.476a4.372 4.372 0 0 0 4.372-4.371h-.2a4.172 4.172 0 0 1-4.172 4.171v.2zm-4.371-4.371a4.372 4.372 0 0 0 4.371 4.371v-.2a4.172 4.172 0 0 1-4.171-4.171h-.2zm0-10.985v10.985h.2V8.12h-.2zm.075-.44a1.319 1.319 0 0 0-.075.44h.2c0-.13.022-.256.063-.373l-.188-.066zm-.075-.372c0 .154.026.302.075.44l.188-.067a1.118 1.118 0 0 1-.063-.373h-.2z" fill="#F5F7F7"/></symbol><symbol fill="none" viewBox="0 0 22 22" id="small-clock" xmlns="http://www.w3.org/2000/svg"><path fill-rule="evenodd" clip-rule="evenodd" d="M11 2.057a8.943 8.943 0 1 0 0 17.886 8.943 8.943 0 0 0 0-17.886zM0 11C0 4.925 4.925 0 11 0s11 4.925 11 11-4.925 11-11 11S0 17.075 0 11z" fill="#169953"/><path fill-rule="evenodd" clip-rule="evenodd" d="M10.475 5.49c.58 0 1.05.47 1.05 1.05v4.29l2.351 1.636a1.05 1.05 0 1 1-1.198 1.724l-2.802-1.95a1.05 1.05 0 0 1-.45-.861v-4.84c0-.58.47-1.05 1.05-1.05z" fill="#169953"/></symbol><symbol fill="none" viewBox="0 0 19 14" id="tick" xmlns="http://www.w3.org/2000/svg"><path d="M1.5 5.5l6 6 10-10" stroke="#fff" stroke-width="3"/></symbol></svg>