<svg width="141" height="142" viewBox="0 0 141 142" fill="none" xmlns="http://www.w3.org/2000/svg">
<g clip-path="url(#clip0)">
<path d="M62.1548 6.72975V53.6843L101.578 79.812L141 87V33.3159L62.1548 6.72975Z" fill="#169953"/>
<path d="M62.1548 0L39.027 9.77248L117.871 43.0878L141 33.3159L62.1548 0Z" fill="#1AB361"/>
<path d="M27.3221 94.316L78.8452 119.993L117.019 101.369L62.1548 75.691L27.3221 94.316Z" fill="#757575"/>
<path d="M62.1548 82.421L65.4961 68.0527L62.1548 53.6843L0 79.9474L18.0775 101.046L62.1548 82.421Z" fill="#169953"/>
<path d="M106.996 101.369L141 87L62.1548 53.6843V82.421L106.996 101.369Z" fill="#1AB361"/>
<path d="M0 79.9474V108.684L78.8452 142L85.5275 127.632L78.8452 113.263L0 79.9474Z" fill="#1AB361"/>
<path d="M78.8452 113.263V142L141 115.737V87L78.8452 113.263Z" fill="#4DD47B"/>
</g>
<defs>
<clipPath id="clip0">
<rect width="141" height="142" fill="white"/>
</clipPath>
</defs>
</svg>
