<svg width="22" height="27" viewBox="0 0 22 27" fill="none" xmlns="http://www.w3.org/2000/svg">
<path d="M11 27L11.0001 26.9C10.6856 26.8998 10.376 26.7756 10.1547 26.5407L10.1546 26.5406C10.1269 26.5113 10.1011 26.4809 10.0773 26.4495L10.0763 26.4482L2.26128 16.4795L2.26126 16.4795L2.25621 16.473L2.25543 16.472C0.903283 14.7655 0.1 12.646 0.1 10.3512C0.1 4.66938 5.00128 0.1 11 0.1C16.9987 0.1 21.9 4.66938 21.9 10.3512C21.9 12.646 21.0967 14.7656 19.7445 16.4721L19.7439 16.4728L19.7387 16.4795L19.7385 16.4798L11.9237 26.4482L11.9227 26.4495C11.8989 26.4809 11.8731 26.5114 11.8454 26.5406L11.8453 26.5407C11.624 26.7756 11.3144 26.8998 10.9999 26.9L11 27ZM11 27C11.3403 26.9998 11.6768 26.8654 11.9181 26.6093L2.18256 16.5412L9.99762 26.5099C10.0236 26.5442 10.0517 26.5774 10.0819 26.6093C10.3232 26.8654 10.6597 26.9998 11 27ZM4.09317 15.1817L4.09316 15.1817L4.09399 15.1828L10.9213 23.8915C10.9403 23.9157 10.9693 23.9298 11 23.9298C11.0307 23.9298 11.0597 23.9157 11.0787 23.8915L17.906 15.1827L17.9062 15.1825L17.9207 15.1639C17.9208 15.1637 17.9209 15.1636 17.921 15.1634C18.9903 13.8184 19.6211 12.1544 19.6211 10.3512C19.6211 5.91507 15.7833 2.28179 11 2.28179C6.2168 2.28179 2.37887 5.91507 2.37887 10.3512C2.37887 12.1546 3.00987 13.8188 4.07929 15.1639L4.15756 15.1016L4.07929 15.1639L4.09317 15.1817ZM6.81038 10.3511C6.81038 8.13379 8.68233 6.32953 11 6.32953C13.3176 6.32953 15.1896 8.13379 15.1896 10.3511C15.1896 12.5685 13.3176 14.3728 11 14.3728C8.68233 14.3728 6.81038 12.5685 6.81038 10.3511ZM11 8.51132C9.94852 8.51132 9.08925 9.33131 9.08925 10.3511C9.08925 11.371 9.94852 12.191 11 12.191C12.0515 12.191 12.9107 11.371 12.9107 10.3511C12.9107 9.33131 12.0515 8.51132 11 8.51132Z" fill="#169953" stroke="#F5F7F7" stroke-width="0.2" stroke-miterlimit="10" stroke-linecap="round" stroke-linejoin="round"/>
</svg>
