<svg width="13" height="26" viewBox="0 0 13 26" fill="none" xmlns="http://www.w3.org/2000/svg">
<path d="M0.1715 3.3025C0.5455 2.9725 0.9525 2.659 1.3925 2.362C1.8435 2.065 2.3275 1.8065 2.8445 1.5865C3.3615 1.3665 3.9225 1.196 4.5275 1.075C5.1325 0.943 5.787 0.877 6.491 0.877C7.448 0.877 8.317 1.009 9.098 1.273C9.89 1.537 10.5665 1.9165 11.1275 2.4115C11.6885 2.8955 12.123 3.484 12.431 4.177C12.739 4.87 12.893 5.6455 12.893 6.5035C12.893 7.3395 12.772 8.0655 12.53 8.6815C12.288 9.2865 11.9855 9.8145 11.6225 10.2655C11.2595 10.7165 10.858 11.107 10.418 11.437C9.989 11.767 9.582 12.0805 9.197 12.3775C8.812 12.6635 8.4765 12.9495 8.1905 13.2355C7.9155 13.5105 7.7505 13.824 7.6955 14.176L7.316 16.585H4.5275L4.247 13.8955C4.181 13.3785 4.2525 12.9275 4.4615 12.5425C4.6815 12.1465 4.9675 11.789 5.3195 11.47C5.6825 11.14 6.084 10.8265 6.524 10.5295C6.964 10.2215 7.3765 9.8915 7.7615 9.5395C8.1465 9.1765 8.4655 8.775 8.7185 8.335C8.9825 7.884 9.1145 7.3505 9.1145 6.7345C9.1145 6.3385 9.0375 5.9865 8.8835 5.6785C8.7405 5.3595 8.537 5.09 8.273 4.87C8.009 4.639 7.69 4.463 7.316 4.342C6.953 4.221 6.557 4.1605 6.128 4.1605C5.501 4.1605 4.9675 4.232 4.5275 4.375C4.0985 4.507 3.73 4.661 3.422 4.837C3.125 5.002 2.872 5.156 2.663 5.299C2.454 5.431 2.267 5.497 2.102 5.497C1.706 5.497 1.42 5.332 1.244 5.002L0.1715 3.3025ZM3.29 22.756C3.29 22.415 3.3505 22.0905 3.4715 21.7825C3.6035 21.4745 3.7795 21.2105 3.9995 20.9905C4.2195 20.7705 4.4835 20.5945 4.7915 20.4625C5.0995 20.3305 5.4295 20.2645 5.7815 20.2645C6.1335 20.2645 6.458 20.3305 6.755 20.4625C7.063 20.5945 7.327 20.7705 7.547 20.9905C7.778 21.2105 7.9595 21.4745 8.0915 21.7825C8.2235 22.0905 8.2895 22.415 8.2895 22.756C8.2895 23.108 8.2235 23.438 8.0915 23.746C7.9595 24.043 7.778 24.3015 7.547 24.5215C7.327 24.7415 7.063 24.912 6.755 25.033C6.458 25.165 6.1335 25.231 5.7815 25.231C5.4295 25.231 5.0995 25.165 4.7915 25.033C4.4835 24.912 4.2195 24.7415 3.9995 24.5215C3.7795 24.3015 3.6035 24.043 3.4715 23.746C3.3505 23.438 3.29 23.108 3.29 22.756Z" fill="#169953"/>
</svg>
