<svg width="27" height="29" viewBox="0 0 27 29" fill="none" xmlns="http://www.w3.org/2000/svg">
<path d="M24.3714 8.07469C24.3288 7.60797 23.9391 7.25 23.4687 7.25H18.9375V5.4375C18.9375 2.43872 16.4997 0 13.5 0C10.5012 0 8.0625 2.43872 8.0625 5.4375V7.25H3.53125C3.06181 7.25 2.67122 7.60797 2.62862 8.07469L0.816123 28.0122C0.793467 28.265 0.877748 28.517 1.04994 28.7046C1.22122 28.8931 1.46409 29 1.71875 29H25.2812C25.5359 29 25.7788 28.8931 25.9501 28.7046C26.1204 28.517 26.2065 28.2659 26.1839 28.0122L24.3714 8.07469ZM9.875 5.4375C9.875 3.43831 11.5017 1.8125 13.5 1.8125C15.4983 1.8125 17.125 3.43831 17.125 5.4375V7.25H9.875V5.4375ZM2.712 27.1875L4.35865 9.0625H8.0625V11.126C7.52237 11.4405 7.15625 12.0187 7.15625 12.6875C7.15625 13.688 7.96825 14.5 8.96875 14.5C9.96925 14.5 10.7812 13.688 10.7812 12.6875C10.7812 12.0187 10.4151 11.4405 9.875 11.126V9.0625H17.125V11.126C16.5849 11.4405 16.2187 12.0178 16.2187 12.6875C16.2187 13.688 17.0307 14.5 18.0312 14.5C19.0317 14.5 19.8437 13.688 19.8437 12.6875C19.8437 12.0187 19.4785 11.4405 18.9375 11.126V9.0625H22.6413L24.288 27.1875H2.712Z" fill="black"/>
</svg>
