<?xml version="1.0" encoding="utf-8"?>
<!-- Generator: Adobe Illustrator 22.1.0, SVG Export Plug-In . SVG Version: 6.00 Build 0)  -->
<svg version="1.1" id="Слой_1" xmlns="http://www.w3.org/2000/svg" xmlns:xlink="http://www.w3.org/1999/xlink" x="0px" y="0px"
	 viewBox="0 0 14.2 19.9" style="enable-background:new 0 0 14.2 19.9;" xml:space="preserve">
<path class="st0" d="M10.5,0c0.2-0.1,0.5,0.1,0.5,0.3v1.9c0,0.2-0.2,0.4-0.4,0.4c-0.2,0-0.4-0.2-0.4-0.4V1L2.8,3.3h7.3h0.8h2.6
	c0.4,0,0.7,0.3,0.7,0.7v15.3c0,0.3-0.2,0.5-0.5,0.5h-13c-0.4,0-0.7-0.3-0.7-0.7V3.9c0-0.3,0.2-0.6,0.5-0.7L10.5,0z M0.8,19h12.5
	l0-14.8H0.8V19z"/>
</svg>
