<?xml version="1.0" encoding="utf-8"?>
<!-- Generator: Adobe Illustrator 22.1.0, SVG Export Plug-In . SVG Version: 6.00 Build 0)  -->
<svg version="1.1" id="Слой_1" xmlns="http://www.w3.org/2000/svg" xmlns:xlink="http://www.w3.org/1999/xlink" x="0px" y="0px"
	 viewBox="0 0 15 10.8" xml:space="preserve">
<path class="st0" d="M0.4,0h14.2C14.8,0,15,0.2,15,0.4l0,0c0,0.2-0.2,0.4-0.4,0.4H0.4C0.2,0.8,0,0.6,0,0.4l0,0C0,0.2,0.2,0,0.4,0z"
	/>
<path class="st0" d="M0.4,5h14.2C14.8,5,15,5.2,15,5.4l0,0c0,0.2-0.2,0.4-0.4,0.4H0.4C0.2,5.8,0,5.6,0,5.4l0,0C0,5.2,0.2,5,0.4,5z"
	/>
<path class="st0" d="M0.4,10h14.2c0.2,0,0.4,0.2,0.4,0.4v0c0,0.2-0.2,0.4-0.4,0.4H0.4c-0.2,0-0.4-0.2-0.4-0.4v0
	C0,10.2,0.2,10,0.4,10z"/>
</svg>
