<?xml version="1.0" encoding="utf-8"?>
<!-- Generator: Adobe Illustrator 22.1.0, SVG Export Plug-In . SVG Version: 6.00 Build 0)  -->
<svg version="1.1" id="Слой_1" xmlns="http://www.w3.org/2000/svg" xmlns:xlink="http://www.w3.org/1999/xlink" x="0px" y="0px"
	 viewBox="0 0 49.9 49.9" style="enable-background:new 0 0 49.9 49.9;" xml:space="preserve">
<style type="text/css">
	.st0{fill:#FFFFFF;}
</style>
<path class="st0" d="M41.6,5.6C41.6,5.5,41.6,5.5,41.6,5.6c0-0.1-0.1-0.2-0.1-0.2l-0.1-0.1l-0.1-0.1l-0.1-0.1c0,0-0.1,0-0.1-0.1
	C41,5,41,5,40.9,5h-0.1h-4.2c-0.2-2.9-1.6-5-3.3-5S30.2,2.1,30,5h-1.7c-0.2-2.9-1.6-5-3.3-5s-3.1,2.1-3.3,5H20c-0.2-2.9-1.6-5-3.3-5
	s-3.1,2.1-3.3,5h-1.7c-0.2-2.9-1.6-5-3.3-5C6.6-0.1,5.2,2,5,4.9H0.8C0.4,4.9,0,5.3,0,5.7V49c0,0.5,0.4,0.9,0.8,0.9h40
	c0.5,0,0.8-0.4,0.8-0.8v-2.5h7.5c0.3,0,0.5-0.1,0.6-0.3c0.2-0.2,0.2-0.4,0.2-0.7L41.6,5.6z M33.3,1.6c0.6,0,1.4,1.3,1.6,3.3h-3.3
	C31.9,2.8,32.7,1.6,33.3,1.6z M25,1.6c0.6,0,1.4,1.3,1.6,3.3h-3.3C23.6,2.8,24.4,1.6,25,1.6z M16.7,1.6c0.6,0,1.4,1.3,1.6,3.3H15
	C15.2,2.8,16.1,1.6,16.7,1.6z M8.3,1.6c0.6,0,1.5,1.2,1.7,3.3H6.7C6.9,2.8,7.7,1.6,8.3,1.6z M1.7,6.6H5c0.2,2.9,1.6,5,3.3,5
	c0.5,0,0.8-0.4,0.8-0.8c0-0.5-0.4-0.8-0.8-0.8c-0.6,0-1.4-1.3-1.6-3.3h6.7c0.2,2.9,1.6,5,3.3,5c0.5,0,0.8-0.4,0.8-0.8
	c0-0.5-0.4-0.8-0.8-0.8c-0.6,0-1.4-1.3-1.6-3.3h6.7c0.2,2.9,1.6,5,3.3,5c0.5,0,0.8-0.4,0.8-0.8c0-0.5-0.4-0.8-0.8-0.8
	c-0.6,0-1.4-1.3-1.6-3.3H30c0.2,2.9,1.6,5,3.3,5c0.5,0,0.8-0.4,0.8-0.8c0-0.5-0.4-0.8-0.8-0.8c-0.6,0-1.4-1.3-1.6-3.3H40v7.9H1.7
	V6.6z M40,48.2H1.7V16.6H40V48.2z M41.7,44.9V13.8l6.4,31.1H41.7z"/>
<path class="st0" d="M18.3,29.9H15c-0.5,0-0.8,0.4-0.8,0.8V34c0,0.5,0.4,0.8,0.8,0.8h3.3c0.5,0,0.8-0.4,0.8-0.8v-3.3
	C19.2,30.3,18.8,29.9,18.3,29.9z M17.5,33.2h-1.7v-1.7h1.7V33.2z"/>
<path class="st0" d="M26.7,29.9h-3.3c-0.5,0-0.8,0.4-0.8,0.8V34c0,0.5,0.4,0.8,0.8,0.8h3.3c0.5,0,0.8-0.4,0.8-0.8v-3.3
	C27.5,30.3,27.1,29.9,26.7,29.9z M25.8,33.2h-1.7v-1.7h1.7V33.2z"/>
<path class="st0" d="M10,29.9H6.7c-0.5,0-0.8,0.4-0.8,0.8V34c0,0.5,0.4,0.8,0.8,0.8H10c0.5,0,0.8-0.4,0.8-0.8v-3.3
	C10.8,30.3,10.5,29.9,10,29.9z M9.2,33.2H7.5v-1.7h1.7V33.2z"/>
<path class="st0" d="M18.3,38.2H15c-0.5,0-0.8,0.4-0.8,0.8v3.3c0,0.5,0.4,0.8,0.8,0.8h3.3c0.5,0,0.8-0.4,0.8-0.8V39
	C19.2,38.6,18.8,38.2,18.3,38.2z M17.5,41.6h-1.7v-1.7h1.7V41.6z"/>
<path class="st0" d="M26.7,38.2h-3.3c-0.5,0-0.8,0.4-0.8,0.8v3.3c0,0.5,0.4,0.8,0.8,0.8h3.3c0.5,0,0.8-0.4,0.8-0.8V39
	C27.5,38.6,27.1,38.2,26.7,38.2z M25.8,41.6h-1.7v-1.7h1.7V41.6z"/>
<path class="st0" d="M10,38.2H6.7c-0.5,0-0.8,0.4-0.8,0.8v3.3c0,0.5,0.4,0.8,0.8,0.8H10c0.5,0,0.8-0.4,0.8-0.8V39
	C10.8,38.6,10.5,38.2,10,38.2z M9.2,41.6H7.5v-1.7h1.7V41.6z"/>
<path class="st0" d="M18.3,21.6H15c-0.5,0-0.8,0.4-0.8,0.8v3.3c0,0.5,0.4,0.8,0.8,0.8h3.3c0.5,0,0.8-0.4,0.8-0.8v-3.3
	C19.2,21.9,18.8,21.6,18.3,21.6z M17.5,24.9h-1.7v-1.7h1.7V24.9z"/>
<path class="st0" d="M26.7,21.6h-3.3c-0.5,0-0.8,0.4-0.8,0.8v3.3c0,0.5,0.4,0.8,0.8,0.8h3.3c0.5,0,0.8-0.4,0.8-0.8v-3.3
	C27.5,21.9,27.1,21.6,26.7,21.6z M25.8,24.9h-1.7v-1.7h1.7V24.9z"/>
<path class="st0" d="M35,29.9h-3.3c-0.5,0-0.8,0.4-0.8,0.8V34c0,0.5,0.4,0.8,0.8,0.8H35c0.5,0,0.8-0.4,0.8-0.8v-3.3
	C35.8,30.3,35.5,29.9,35,29.9z M34.2,33.2h-1.7v-1.7h1.7V33.2z"/>
<path class="st0" d="M35,38.2h-3.3c-0.5,0-0.8,0.4-0.8,0.8v3.3c0,0.5,0.4,0.8,0.8,0.8H35c0.5,0,0.8-0.4,0.8-0.8V39
	C35.8,38.6,35.5,38.2,35,38.2z M34.2,41.6h-1.7v-1.7h1.7V41.6z"/>
<path class="st0" d="M35,21.6h-3.3c-0.5,0-0.8,0.4-0.8,0.8v3.3c0,0.5,0.4,0.8,0.8,0.8H35c0.5,0,0.8-0.4,0.8-0.8v-3.3
	C35.8,21.9,35.5,21.6,35,21.6z M34.2,24.9h-1.7v-1.7h1.7V24.9z"/>
<path class="st0" d="M10,21.6H6.7c-0.5,0-0.8,0.4-0.8,0.8v3.3c0,0.5,0.4,0.8,0.8,0.8H10c0.5,0,0.8-0.4,0.8-0.8v-3.3
	C10.8,21.9,10.5,21.6,10,21.6z M9.2,24.9H7.5v-1.7h1.7V24.9z"/>
</svg>
