<svg width="25" height="24" viewBox="0 0 25 24" fill="none" xmlns="http://www.w3.org/2000/svg">
<path fill-rule="evenodd" clip-rule="evenodd" d="M0 1.01622C0 0.454976 0.465203 0 1.03906 0H3.63671C4.20823 0 4.67197 0.451274 4.67575 1.00936C4.73787 1.08559 4.78974 1.17192 4.82853 1.26716L5.55414 3.04865H23.5924C23.6749 3.04865 23.7936 3.05079 23.9186 3.06824C24.0332 3.08423 24.2458 3.12442 24.4592 3.2586C24.7133 3.41834 24.9094 3.67515 24.976 3.99805C25.0324 4.27164 24.9777 4.5077 24.9324 4.6495C24.9323 4.64991 24.9321 4.65033 24.932 4.65074L22.1279 13.4851L22.1265 13.4893C22.0492 13.7293 21.9158 13.9765 21.7472 14.1808C21.6616 14.2844 21.5429 14.4062 21.3878 14.5096C21.2383 14.6092 20.9877 14.7356 20.6617 14.7356H8.56624L7.61149 17.2757H21.3007C21.8746 17.2757 22.3398 17.7307 22.3398 18.2919C22.3398 18.8531 21.8746 19.3081 21.3007 19.3081H20.5892C20.9566 19.8008 21.1719 20.4095 21.1719 21.0606C21.1719 22.6579 19.8761 24 18.2189 24C16.5616 24 15.2659 22.6579 15.2659 21.0606C15.2659 20.4095 15.4812 19.8008 15.8485 19.3081H12.4545C12.8218 19.8008 13.0371 20.4095 13.0371 21.0606C13.0371 22.6579 11.7413 24 10.0841 24C8.4269 24 7.13104 22.6579 7.13104 21.0606C7.13104 20.4095 7.34635 19.8008 7.71367 19.3081H6.23436C5.6605 19.3081 5.1953 18.8531 5.1953 18.2919C5.1953 18.21 5.2052 18.1304 5.22391 18.0541C5.20545 17.9006 5.22265 17.7406 5.28092 17.5856L6.73121 13.7272C6.73793 13.7067 6.74503 13.6863 6.75249 13.6661C6.71315 13.5787 6.67997 13.4924 6.65385 13.411C6.65369 13.4105 6.65353 13.41 6.65337 13.4095L3.84817 4.73772C3.79828 4.58152 3.7701 4.39554 3.78694 4.20194L2.9033 2.03243H1.03906C0.465203 2.03243 0 1.57746 0 1.01622ZM6.13888 5.08109L8.59772 12.6822C8.61279 12.6889 8.62767 12.6959 8.64234 12.7032H20.2001L22.6195 5.08109H6.13888ZM22.9489 4.04311L22.9481 4.04555L22.9489 4.04311ZM10.0841 20.1536C9.6272 20.1536 9.20916 20.5336 9.20916 21.0606C9.20916 21.5875 9.6272 21.9676 10.0841 21.9676C10.5409 21.9676 10.959 21.5876 10.959 21.0606C10.959 20.5336 10.5409 20.1536 10.0841 20.1536ZM18.2189 20.1536C17.762 20.1536 17.344 20.5336 17.344 21.0606C17.344 21.5876 17.762 21.9676 18.2189 21.9676C18.6757 21.9676 19.0937 21.5876 19.0937 21.0606C19.0937 20.5336 18.6757 20.1536 18.2189 20.1536Z" fill="#169953"/>
</svg>
