<svg width="12" height="12" viewBox="0 0 12 12" fill="none" xmlns="http://www.w3.org/2000/svg">
<g clip-path="url(#clip0)">
<path d="M11.5943 2.36412L7.95835 6.00043L11.5943 9.63656C12.1351 10.1776 12.1351 11.054 11.5943 11.595C11.3241 11.8652 10.9698 12.0005 10.6157 12.0005C10.261 12.0005 9.90666 11.8655 9.63664 11.595L5.99991 7.95848L2.36346 11.595C2.09327 11.8652 1.73895 12.0004 1.38453 12.0004C1.03021 12.0004 0.676137 11.8654 0.405706 11.595C-0.135122 11.0542 -0.135122 10.1778 0.405706 9.63652L4.04154 6.00039L0.405499 2.36412C-0.135329 1.8233 -0.135329 0.946692 0.405499 0.405866C0.946223 -0.134546 1.82232 -0.134546 2.36325 0.405866L5.99988 4.04217L9.63623 0.405866C10.1773 -0.134546 11.0535 -0.134546 11.5941 0.405866C12.1351 0.946692 12.1351 1.8233 11.5943 2.36412Z" fill="white"/>
</g>
<defs>
<clipPath id="clip0">
<rect width="12" height="12" fill="white"/>
</clipPath>
</defs>
</svg>
