<?xml version="1.0" encoding="utf-8"?>
<!-- Generator: Adobe Illustrator 22.1.0, SVG Export Plug-In . SVG Version: 6.00 Build 0)  -->
<svg version="1.1" id="Слой_1" xmlns="http://www.w3.org/2000/svg" xmlns:xlink="http://www.w3.org/1999/xlink" x="0px" y="0px"
	 viewBox="0 0 20 19.2" style="enable-background:new 0 0 20 19.2;" xml:space="preserve">
<path class="st0" d="M17.1,19.2h-5c-0.2,0-0.4-0.2-0.4-0.4v-5.4H8.3v5.4c0,0.2-0.2,0.4-0.4,0.4h-5c-0.2,0-0.4-0.2-0.4-0.4v-8.3
	c0-0.2,0.2-0.4,0.4-0.4s0.4,0.2,0.4,0.4v7.9h4.2v-5.4c0-0.2,0.2-0.4,0.4-0.4h4.2c0.2,0,0.4,0.2,0.4,0.4v5.4h4.2v-7.5
	c0-0.2,0.2-0.4,0.4-0.4c0.2,0,0.4,0.2,0.4,0.4v7.9C17.5,19,17.3,19.2,17.1,19.2z M19.6,10.4c-0.1,0-0.2,0-0.3-0.1L10,1l-9.3,9.3
	c-0.2,0.2-0.4,0.2-0.6,0C0,10.1,0,9.9,0.1,9.7l9.6-9.6c0.2-0.2,0.4-0.2,0.6,0l9.6,9.6c0.2,0.2,0.2,0.4,0,0.6
	C19.8,10.4,19.7,10.4,19.6,10.4z M16.3,4.6c-0.2,0-0.4-0.2-0.4-0.4V1.7h-2.5c-0.2,0-0.4-0.2-0.4-0.4s0.2-0.4,0.4-0.4h2.9
	c0.2,0,0.4,0.2,0.4,0.4v2.9C16.7,4.4,16.5,4.6,16.3,4.6z"/>
</svg>
