<svg width="22" height="21" viewBox="0 0 22 21" fill="none" xmlns="http://www.w3.org/2000/svg">
<path fill-rule="evenodd" clip-rule="evenodd" d="M7.34285 1.05C7.34285 1.6299 6.85036 2.1 6.24285 2.1L2.2 2.1L2.2 18.9H6.24285C6.85036 18.9 7.34285 19.3701 7.34285 19.95C7.34285 20.5299 6.85036 21 6.24285 21H1.1C0.492486 21 -2.65552e-08 20.5299 0 19.95L8.65485e-07 1.05C8.9204e-07 0.470101 0.492487 -2.53482e-08 1.1 0L6.24285 2.14583e-07C6.85036 2.39931e-07 7.34285 0.470101 7.34285 1.05Z" fill="#169953"/>
<path fill-rule="evenodd" clip-rule="evenodd" d="M21.9035 10.0101C22.0815 10.3885 22.0094 10.8316 21.7194 11.1406L15.0142 18.288C14.6089 18.72 13.9135 18.7566 13.4609 18.3697C13.0083 17.9828 12.97 17.319 13.3753 16.887L18.4306 11.4984L6.50386 11.5385C5.89635 11.5405 5.40214 11.0721 5.4 10.4922C5.39787 9.91226 5.88862 9.44051 6.49613 9.43847L20.8961 9.39015C21.3307 9.38869 21.7255 9.63163 21.9035 10.0101Z" fill="#169953"/>
<path fill-rule="evenodd" clip-rule="evenodd" d="M21.6399 11.2171C21.1903 11.6072 20.4947 11.5755 20.086 11.1464L13.3936 4.11877C12.985 3.68966 13.0181 3.02559 13.4677 2.63553C13.9172 2.24547 14.6129 2.27712 15.0216 2.70623L21.7139 9.73387C22.1226 10.163 22.0894 10.827 21.6399 11.2171Z" fill="#169953"/>
</svg>
