<svg width="22" height="22" viewBox="0 0 22 22" fill="none" xmlns="http://www.w3.org/2000/svg">
<path fill-rule="evenodd" clip-rule="evenodd" d="M3.38606 12.3372C5.28967 11.195 7.85776 10.5195 10.6433 10.5195C13.4288 10.5195 15.9969 11.195 17.9005 12.3372C19.7851 13.468 21.1671 15.1633 21.1671 17.2164C21.1671 17.7448 20.7388 18.1732 20.2104 18.1732C19.682 18.1732 19.2537 17.7448 19.2537 17.2164C19.2537 16.0995 18.4941 14.9248 16.9161 13.9779C15.3571 13.0425 13.1417 12.4329 10.6433 12.4329C8.14495 12.4329 5.92949 13.0425 4.37053 13.9779C2.79252 14.9248 2.03292 16.0995 2.03292 17.2164C2.03292 17.7448 1.60459 18.1732 1.07622 18.1732C0.54784 18.1732 0.119507 17.7448 0.119507 17.2164C0.119507 15.1633 1.5015 13.468 3.38606 12.3372Z" fill="#169953"/>
<path fill-rule="evenodd" clip-rule="evenodd" d="M10.6433 1.91342C8.2656 1.91342 6.3381 3.84092 6.3381 6.21861C6.3381 8.5963 8.2656 10.5238 10.6433 10.5238C13.021 10.5238 14.9485 8.5963 14.9485 6.21861C14.9485 3.84092 13.021 1.91342 10.6433 1.91342ZM4.42468 6.21861C4.42468 2.78417 7.20885 0 10.6433 0C14.0777 0 16.8619 2.78417 16.8619 6.21861C16.8619 9.65305 14.0777 12.4372 10.6433 12.4372C7.20885 12.4372 4.42468 9.65305 4.42468 6.21861Z" fill="#169953"/>
<path fill-rule="evenodd" clip-rule="evenodd" d="M0.956709 16.2597C1.48508 16.2597 1.91342 16.6881 1.91342 17.2165V20.0866H19.1342V17.2165C19.1342 16.6881 19.5625 16.2597 20.0909 16.2597C20.6193 16.2597 21.0476 16.6881 21.0476 17.2165V20.3568C21.0476 20.5803 21.013 20.89 20.8881 21.1818C20.773 21.4506 20.4324 22 19.7183 22H1.56852C1.26756 22 1.02247 21.8907 0.860437 21.7919C0.691267 21.6888 0.549953 21.5597 0.438446 21.4313C0.24669 21.2105 0 20.8225 0 20.3568V17.2165C0 16.6881 0.428333 16.2597 0.956709 16.2597Z" fill="#169953"/>
</svg>
