<svg width="19" height="29" viewBox="0 0 19 29" fill="none" xmlns="http://www.w3.org/2000/svg">
<path fill-rule="evenodd" clip-rule="evenodd" d="M5.27167 7.30802C5.27167 4.09646 8.12384 1 11.6792 1C15.0822 1 18.0867 3.48905 18.0867 6.84546C18.0867 6.96064 18.0707 7.0721 18.0409 7.17774C18.0707 7.28337 18.0867 7.39483 18.0867 7.51001V20.3019V20.9353C18.0867 21.0806 18.0613 21.22 18.0146 21.3493C17.462 25.3289 13.8016 28.2819 9.54334 28.2819C5.28505 28.2819 1.6247 25.3289 1.07204 21.3493C1.02541 21.22 1 21.0806 1 20.9353V20.3019V9.95096C1 9.27691 1.54643 8.73048 2.22048 8.73048C2.89453 8.73048 3.44095 9.27691 3.44095 9.95096V20.3019C3.44095 23.2711 6.07947 25.841 9.54334 25.841C13.0072 25.841 15.6457 23.2711 15.6457 20.3019V7.51001C15.6457 7.39483 15.6617 7.28337 15.6915 7.17773C15.6617 7.0721 15.6457 6.96064 15.6457 6.84546C15.6457 5.09296 14.005 3.44095 11.6792 3.44095C9.50559 3.44095 7.71263 5.41066 7.71263 7.30802C7.71263 7.4504 7.68824 7.58709 7.64343 7.71413C7.68824 7.84118 7.71263 7.97786 7.71263 8.12025V19.1045C7.71263 20.1154 8.53252 20.9353 9.54334 20.9353C10.5538 20.9353 11.3734 20.116 11.3741 19.1057C11.3741 19.1053 11.3741 19.1049 11.3741 19.1045L11.3741 9.95096C11.3741 9.27691 11.9205 8.73048 12.5945 8.73048C13.2686 8.73048 13.815 9.27691 13.815 9.95096V19.1045C13.815 21.4635 11.9023 23.3762 9.54334 23.3762C7.18442 23.3762 5.27167 21.4635 5.27167 19.1045V8.12025C5.27167 7.97786 5.29605 7.84118 5.34087 7.71413C5.29605 7.58709 5.27167 7.4504 5.27167 7.30802Z" fill="#169953"/>
<path d="M18.0409 7.17774L17.9447 7.15057C17.9397 7.16833 17.9397 7.18714 17.9447 7.2049L18.0409 7.17774ZM18.0146 21.3493L17.9206 21.3154C17.9182 21.3219 17.9166 21.3287 17.9156 21.3356L18.0146 21.3493ZM1.07204 21.3493L1.17109 21.3356C1.17013 21.3287 1.16846 21.3219 1.16611 21.3154L1.07204 21.3493ZM15.6915 7.17773L15.7877 7.2049C15.7928 7.18714 15.7928 7.16833 15.7877 7.15057L15.6915 7.17773ZM7.64343 7.71413L7.54913 7.68087C7.54153 7.70239 7.54153 7.72587 7.54913 7.7474L7.64343 7.71413ZM11.3741 19.1057L11.4741 19.1058V19.1057H11.3741ZM11.3741 19.1045H11.4741H11.3741ZM11.3741 9.95096H11.2741H11.3741ZM5.34087 7.71413L5.43517 7.7474C5.44276 7.72587 5.44276 7.70239 5.43517 7.68087L5.34087 7.71413ZM11.6792 0.9C8.06715 0.9 5.17167 4.0427 5.17167 7.30802H5.37167C5.37167 4.15022 8.18053 1.1 11.6792 1.1V0.9ZM18.1867 6.84546C18.1867 3.42274 15.1257 0.9 11.6792 0.9V1.1C15.0388 1.1 17.9867 3.55536 17.9867 6.84546H18.1867ZM18.1371 7.2049C18.1694 7.09051 18.1867 6.96992 18.1867 6.84546H17.9867C17.9867 6.95137 17.972 7.05368 17.9447 7.15057L18.1371 7.2049ZM18.1867 7.51001C18.1867 7.38555 18.1694 7.26496 18.1371 7.15057L17.9447 7.2049C17.972 7.30179 17.9867 7.4041 17.9867 7.51001H18.1867ZM18.1867 20.3019V7.51001H17.9867V20.3019H18.1867ZM18.1867 20.9353V20.3019H17.9867V20.9353H18.1867ZM18.1087 21.3833C18.1592 21.2432 18.1867 21.0924 18.1867 20.9353H17.9867C17.9867 21.0689 17.9633 21.1968 17.9206 21.3154L18.1087 21.3833ZM9.54334 28.3819C13.8457 28.3819 17.5534 25.3977 18.1137 21.3631L17.9156 21.3356C17.3706 25.2601 13.7576 28.1819 9.54334 28.1819V28.3819ZM0.972987 21.3631C1.53329 25.3977 5.24102 28.3819 9.54334 28.3819V28.1819C5.32908 28.1819 1.7161 25.2601 1.17109 21.3356L0.972987 21.3631ZM0.9 20.9353C0.9 21.0923 0.927475 21.2432 0.977966 21.3833L1.16611 21.3154C1.12335 21.1968 1.1 21.0689 1.1 20.9353H0.9ZM0.9 20.3019V20.9353H1.1V20.3019H0.9ZM0.9 9.95096V20.3019H1.1V9.95096H0.9ZM2.22048 8.63048C1.4912 8.63048 0.9 9.22168 0.9 9.95096H1.1C1.1 9.33214 1.60165 8.83048 2.22048 8.83048V8.63048ZM3.54095 9.95096C3.54095 9.22168 2.94976 8.63048 2.22048 8.63048V8.83048C2.8393 8.83048 3.34095 9.33214 3.34095 9.95096H3.54095ZM3.54095 20.3019V9.95096H3.34095V20.3019H3.54095ZM9.54334 25.741C6.1275 25.741 3.54095 23.2089 3.54095 20.3019H3.34095C3.34095 23.3332 6.03144 25.941 9.54334 25.941V25.741ZM15.5457 20.3019C15.5457 23.2089 12.9592 25.741 9.54334 25.741V25.941C13.0552 25.941 15.7457 23.3332 15.7457 20.3019H15.5457ZM15.5457 7.51001V20.3019H15.7457V7.51001H15.5457ZM15.5953 7.15057C15.563 7.26496 15.5457 7.38555 15.5457 7.51001H15.7457C15.7457 7.4041 15.7604 7.30179 15.7877 7.2049L15.5953 7.15057ZM15.5457 6.84546C15.5457 6.96992 15.563 7.09051 15.5953 7.2049L15.7877 7.15057C15.7604 7.05368 15.7457 6.95137 15.7457 6.84546H15.5457ZM11.6792 3.54095C13.9598 3.54095 15.5457 5.15766 15.5457 6.84546H15.7457C15.7457 5.02826 14.0503 3.34095 11.6792 3.34095V3.54095ZM7.81263 7.30802C7.81263 6.38999 8.24721 5.44745 8.95199 4.73322C9.65616 4.0196 10.6232 3.54095 11.6792 3.54095V3.34095C10.5616 3.34095 9.54534 3.84716 8.80963 4.59274C8.07452 5.3377 7.61263 6.3287 7.61263 7.30802H7.81263ZM7.73773 7.7474C7.78627 7.60982 7.81263 7.46189 7.81263 7.30802H7.61263C7.61263 7.43892 7.59022 7.56436 7.54913 7.68087L7.73773 7.7474ZM7.81263 8.12025C7.81263 7.96638 7.78627 7.81845 7.73773 7.68087L7.54913 7.7474C7.59022 7.86391 7.61263 7.98935 7.61263 8.12025H7.81263ZM7.81263 19.1045V8.12025H7.61263V19.1045H7.81263ZM9.54334 20.8353C8.58775 20.8353 7.81263 20.0601 7.81263 19.1045H7.61263C7.61263 20.1706 8.47729 21.0353 9.54334 21.0353V20.8353ZM11.2741 19.1057C11.2734 20.0607 10.4986 20.8353 9.54334 20.8353V21.0353C10.609 21.0353 11.4734 20.1713 11.4741 19.1058L11.2741 19.1057ZM11.2741 19.1045V19.1045C11.2741 19.1045 11.2741 19.1045 11.2741 19.1045C11.2741 19.1045 11.2741 19.1045 11.2741 19.1045C11.2741 19.1045 11.2741 19.1045 11.2741 19.1046V19.1046C11.2741 19.1046 11.2741 19.1046 11.2741 19.1046C11.2741 19.1046 11.2741 19.1046 11.2741 19.1046C11.2741 19.1046 11.2741 19.1046 11.2741 19.1046V19.1046V19.1046C11.2741 19.1046 11.2741 19.1046 11.2741 19.1046C11.2741 19.1046 11.2741 19.1046 11.2741 19.1046V19.1046V19.1046C11.2741 19.1046 11.2741 19.1046 11.2741 19.1046C11.2741 19.1046 11.2741 19.1046 11.2741 19.1046C11.2741 19.1046 11.2741 19.1046 11.2741 19.1046V19.1046V19.1046C11.2741 19.1046 11.2741 19.1046 11.2741 19.1046C11.2741 19.1046 11.2741 19.1046 11.2741 19.1046V19.1046V19.1046C11.2741 19.1046 11.2741 19.1046 11.2741 19.1046C11.2741 19.1046 11.2741 19.1046 11.2741 19.1046C11.2741 19.1046 11.2741 19.1046 11.2741 19.1046V19.1046V19.1046C11.2741 19.1046 11.2741 19.1046 11.2741 19.1046C11.2741 19.1046 11.2741 19.1046 11.2741 19.1046V19.1046V19.1046C11.2741 19.1046 11.2741 19.1046 11.2741 19.1046C11.2741 19.1046 11.2741 19.1046 11.2741 19.1046C11.2741 19.1046 11.2741 19.1046 11.2741 19.1046V19.1046V19.1046C11.2741 19.1046 11.2741 19.1046 11.2741 19.1046C11.2741 19.1046 11.2741 19.1046 11.2741 19.1046V19.1046V19.1046C11.2741 19.1046 11.2741 19.1046 11.2741 19.1046C11.2741 19.1046 11.2741 19.1046 11.2741 19.1046C11.2741 19.1046 11.2741 19.1046 11.2741 19.1046V19.1046V19.1046C11.2741 19.1047 11.2741 19.1047 11.2741 19.1047C11.2741 19.1047 11.2741 19.1047 11.2741 19.1047V19.1047V19.1047C11.2741 19.1047 11.2741 19.1047 11.2741 19.1047C11.2741 19.1047 11.2741 19.1047 11.2741 19.1047C11.2741 19.1047 11.2741 19.1047 11.2741 19.1047V19.1047C11.2741 19.1047 11.2741 19.1047 11.2741 19.1047C11.2741 19.1047 11.2741 19.1047 11.2741 19.1047C11.2741 19.1047 11.2741 19.1047 11.2741 19.1047V19.1047V19.1047C11.2741 19.1047 11.2741 19.1047 11.2741 19.1047C11.2741 19.1047 11.2741 19.1047 11.2741 19.1047C11.2741 19.1047 11.2741 19.1047 11.2741 19.1047V19.1047C11.2741 19.1047 11.2741 19.1047 11.2741 19.1047C11.2741 19.1047 11.2741 19.1047 11.2741 19.1047C11.2741 19.1047 11.2741 19.1047 11.2741 19.1047V19.1047V19.1047C11.2741 19.1047 11.2741 19.1047 11.2741 19.1047C11.2741 19.1047 11.2741 19.1047 11.2741 19.1047C11.2741 19.1047 11.2741 19.1047 11.2741 19.1047V19.1047C11.2741 19.1047 11.2741 19.1047 11.2741 19.1047C11.2741 19.1047 11.2741 19.1047 11.2741 19.1047C11.2741 19.1047 11.2741 19.1047 11.2741 19.1047V19.1047V19.1047C11.2741 19.1047 11.2741 19.1047 11.2741 19.1047C11.2741 19.1047 11.2741 19.1047 11.2741 19.1047C11.2741 19.1047 11.2741 19.1047 11.2741 19.1047V19.1047C11.2741 19.1047 11.2741 19.1047 11.2741 19.1047C11.2741 19.1047 11.2741 19.1047 11.2741 19.1047C11.2741 19.1047 11.2741 19.1047 11.2741 19.1047V19.1047V19.1047C11.2741 19.1047 11.2741 19.1047 11.2741 19.1047C11.2741 19.1047 11.2741 19.1047 11.2741 19.1047V19.1047V19.1048C11.2741 19.1048 11.2741 19.1048 11.2741 19.1048C11.2741 19.1048 11.2741 19.1048 11.2741 19.1048C11.2741 19.1048 11.2741 19.1048 11.2741 19.1048V19.1048V19.1048C11.2741 19.1048 11.2741 19.1048 11.2741 19.1048C11.2741 19.1048 11.2741 19.1048 11.2741 19.1048V19.1048V19.1048C11.2741 19.1048 11.2741 19.1048 11.2741 19.1048C11.2741 19.1048 11.2741 19.1048 11.2741 19.1048C11.2741 19.1048 11.2741 19.1048 11.2741 19.1048V19.1048V19.1048C11.2741 19.1048 11.2741 19.1048 11.2741 19.1048C11.2741 19.1048 11.2741 19.1048 11.2741 19.1048V19.1048V19.1048C11.2741 19.1048 11.2741 19.1048 11.2741 19.1048C11.2741 19.1048 11.2741 19.1048 11.2741 19.1048C11.2741 19.1048 11.2741 19.1048 11.2741 19.1048V19.1048V19.1048C11.2741 19.1048 11.2741 19.1048 11.2741 19.1048C11.2741 19.1048 11.2741 19.1048 11.2741 19.1048V19.1048V19.1048C11.2741 19.1048 11.2741 19.1048 11.2741 19.1048C11.2741 19.1048 11.2741 19.1048 11.2741 19.1048C11.2741 19.1048 11.2741 19.1048 11.2741 19.1048V19.1048V19.1048C11.2741 19.1048 11.2741 19.1048 11.2741 19.1048C11.2741 19.1048 11.2741 19.1048 11.2741 19.1048V19.1048V19.1048C11.2741 19.1048 11.2741 19.1048 11.2741 19.1048C11.2741 19.1048 11.2741 19.1048 11.2741 19.1048C11.2741 19.1048 11.2741 19.1048 11.2741 19.1048V19.1048V19.1048C11.2741 19.1048 11.2741 19.1048 11.2741 19.1048C11.2741 19.1049 11.2741 19.1049 11.2741 19.1049V19.1049V19.1049C11.2741 19.1049 11.2741 19.1049 11.2741 19.1049C11.2741 19.1049 11.2741 19.1049 11.2741 19.1049C11.2741 19.1049 11.2741 19.1049 11.2741 19.1049V19.1049V19.1049C11.2741 19.1049 11.2741 19.1049 11.2741 19.1049C11.2741 19.1049 11.2741 19.1049 11.2741 19.1049V19.1049V19.1049C11.2741 19.1049 11.2741 19.1049 11.2741 19.1049C11.2741 19.1049 11.2741 19.1049 11.2741 19.1049C11.2741 19.1049 11.2741 19.1049 11.2741 19.1049V19.1049V19.1049C11.2741 19.1049 11.2741 19.1049 11.2741 19.1049C11.2741 19.1049 11.2741 19.1049 11.2741 19.1049V19.1049V19.1049C11.2741 19.1049 11.2741 19.1049 11.2741 19.1049C11.2741 19.1049 11.2741 19.1049 11.2741 19.1049C11.2741 19.1049 11.2741 19.1049 11.2741 19.1049V19.1049V19.1049C11.2741 19.1049 11.2741 19.1049 11.2741 19.1049C11.2741 19.1049 11.2741 19.1049 11.2741 19.1049V19.1049V19.1049C11.2741 19.1049 11.2741 19.1049 11.2741 19.1049C11.2741 19.1049 11.2741 19.1049 11.2741 19.1049C11.2741 19.1049 11.2741 19.1049 11.2741 19.1049V19.1049V19.1049C11.2741 19.1049 11.2741 19.1049 11.2741 19.1049C11.2741 19.1049 11.2741 19.1049 11.2741 19.1049V19.1049V19.1049C11.2741 19.1049 11.2741 19.1049 11.2741 19.1049C11.2741 19.1049 11.2741 19.1049 11.2741 19.1049C11.2741 19.1049 11.2741 19.1049 11.2741 19.1049V19.1049V19.105C11.2741 19.105 11.2741 19.105 11.2741 19.105C11.2741 19.105 11.2741 19.105 11.2741 19.105V19.105V19.105C11.2741 19.105 11.2741 19.105 11.2741 19.105C11.2741 19.105 11.2741 19.105 11.2741 19.105C11.2741 19.105 11.2741 19.105 11.2741 19.105V19.105V19.105C11.2741 19.105 11.2741 19.105 11.2741 19.105C11.2741 19.105 11.2741 19.105 11.2741 19.105V19.105V19.105C11.2741 19.105 11.2741 19.105 11.2741 19.105C11.2741 19.105 11.2741 19.105 11.2741 19.105C11.2741 19.105 11.2741 19.105 11.2741 19.105V19.105V19.105C11.2741 19.105 11.2741 19.105 11.2741 19.105C11.2741 19.105 11.2741 19.105 11.2741 19.105V19.105V19.105C11.2741 19.105 11.2741 19.105 11.2741 19.105C11.2741 19.105 11.2741 19.105 11.2741 19.105C11.2741 19.105 11.2741 19.105 11.2741 19.105V19.105V19.105C11.2741 19.105 11.2741 19.105 11.2741 19.105C11.2741 19.105 11.2741 19.105 11.2741 19.105V19.105V19.105C11.2741 19.105 11.2741 19.105 11.2741 19.105C11.2741 19.105 11.2741 19.105 11.2741 19.105C11.2741 19.105 11.2741 19.105 11.2741 19.105V19.105V19.105C11.2741 19.105 11.2741 19.105 11.2741 19.105C11.2741 19.105 11.2741 19.105 11.2741 19.105V19.105V19.105C11.2741 19.105 11.2741 19.105 11.2741 19.105C11.2741 19.105 11.2741 19.105 11.2741 19.1051C11.2741 19.1051 11.2741 19.1051 11.2741 19.1051V19.1051V19.1051C11.2741 19.1051 11.2741 19.1051 11.2741 19.1051C11.2741 19.1051 11.2741 19.1051 11.2741 19.1051C11.2741 19.1051 11.2741 19.1051 11.2741 19.1051V19.1051C11.2741 19.1051 11.2741 19.1051 11.2741 19.1051C11.2741 19.1051 11.2741 19.1051 11.2741 19.1051C11.2741 19.1051 11.2741 19.1051 11.2741 19.1051V19.1051V19.1051C11.2741 19.1051 11.2741 19.1051 11.2741 19.1051C11.2741 19.1051 11.2741 19.1051 11.2741 19.1051C11.2741 19.1051 11.2741 19.1051 11.2741 19.1051V19.1051C11.2741 19.1051 11.2741 19.1051 11.2741 19.1051C11.2741 19.1051 11.2741 19.1051 11.2741 19.1051C11.2741 19.1051 11.2741 19.1051 11.2741 19.1051V19.1051V19.1051C11.2741 19.1051 11.2741 19.1051 11.2741 19.1051C11.2741 19.1051 11.2741 19.1051 11.2741 19.1051C11.2741 19.1051 11.2741 19.1051 11.2741 19.1051V19.1051C11.2741 19.1051 11.2741 19.1051 11.2741 19.1051C11.2741 19.1051 11.2741 19.1051 11.2741 19.1051C11.2741 19.1051 11.2741 19.1051 11.2741 19.1051V19.1051V19.1051C11.2741 19.1051 11.2741 19.1051 11.2741 19.1051C11.2741 19.1051 11.2741 19.1051 11.2741 19.1051C11.2741 19.1051 11.2741 19.1051 11.2741 19.1051V19.1051C11.2741 19.1051 11.2741 19.1051 11.2741 19.1051C11.2741 19.1051 11.2741 19.1051 11.2741 19.1051C11.2741 19.1051 11.2741 19.1051 11.2741 19.1051V19.1051V19.1051C11.2741 19.1051 11.2741 19.1051 11.2741 19.1051C11.2741 19.1051 11.2741 19.1051 11.2741 19.1051C11.2741 19.1051 11.2741 19.1051 11.2741 19.1051V19.1052C11.2741 19.1052 11.2741 19.1052 11.2741 19.1052C11.2741 19.1052 11.2741 19.1052 11.2741 19.1052C11.2741 19.1052 11.2741 19.1052 11.2741 19.1052V19.1052V19.1052C11.2741 19.1052 11.2741 19.1052 11.2741 19.1052C11.2741 19.1052 11.2741 19.1052 11.2741 19.1052C11.2741 19.1052 11.2741 19.1052 11.2741 19.1052V19.1052C11.2741 19.1052 11.2741 19.1052 11.2741 19.1052C11.2741 19.1052 11.2741 19.1052 11.2741 19.1052C11.2741 19.1052 11.2741 19.1052 11.2741 19.1052V19.1052V19.1052C11.2741 19.1052 11.2741 19.1052 11.2741 19.1052C11.2741 19.1052 11.2741 19.1052 11.2741 19.1052C11.2741 19.1052 11.2741 19.1052 11.2741 19.1052V19.1052C11.2741 19.1052 11.2741 19.1052 11.2741 19.1052C11.2741 19.1052 11.2741 19.1052 11.2741 19.1052C11.2741 19.1052 11.2741 19.1052 11.2741 19.1052V19.1052V19.1052C11.2741 19.1052 11.2741 19.1052 11.2741 19.1052C11.2741 19.1052 11.2741 19.1052 11.2741 19.1052C11.2741 19.1052 11.2741 19.1052 11.2741 19.1052V19.1052C11.2741 19.1052 11.2741 19.1052 11.2741 19.1052C11.2741 19.1052 11.2741 19.1052 11.2741 19.1052C11.2741 19.1052 11.2741 19.1052 11.2741 19.1052V19.1052V19.1052C11.2741 19.1052 11.2741 19.1052 11.2741 19.1052C11.2741 19.1052 11.2741 19.1052 11.2741 19.1052C11.2741 19.1052 11.2741 19.1052 11.2741 19.1052V19.1052V19.1052C11.2741 19.1052 11.2741 19.1052 11.2741 19.1052C11.2741 19.1052 11.2741 19.1052 11.2741 19.1052V19.1052V19.1052C11.2741 19.1052 11.2741 19.1052 11.2741 19.1052C11.2741 19.1052 11.2741 19.1052 11.2741 19.1053C11.2741 19.1053 11.2741 19.1053 11.2741 19.1053V19.1053V19.1053C11.2741 19.1053 11.2741 19.1053 11.2741 19.1053C11.2741 19.1053 11.2741 19.1053 11.2741 19.1053V19.1053V19.1053C11.2741 19.1053 11.2741 19.1053 11.2741 19.1053C11.2741 19.1053 11.2741 19.1053 11.2741 19.1053C11.2741 19.1053 11.2741 19.1053 11.2741 19.1053V19.1053V19.1053C11.2741 19.1053 11.2741 19.1053 11.2741 19.1053C11.2741 19.1053 11.2741 19.1053 11.2741 19.1053V19.1053V19.1053C11.2741 19.1053 11.2741 19.1053 11.2741 19.1053C11.2741 19.1053 11.2741 19.1053 11.2741 19.1053C11.2741 19.1053 11.2741 19.1053 11.2741 19.1053V19.1053V19.1053C11.2741 19.1053 11.2741 19.1053 11.2741 19.1053C11.2741 19.1053 11.2741 19.1053 11.2741 19.1053V19.1053V19.1053C11.2741 19.1053 11.2741 19.1053 11.2741 19.1053C11.2741 19.1053 11.2741 19.1053 11.2741 19.1053C11.2741 19.1053 11.2741 19.1053 11.2741 19.1053V19.1053V19.1053C11.2741 19.1053 11.2741 19.1053 11.2741 19.1053C11.2741 19.1053 11.2741 19.1053 11.2741 19.1053V19.1053V19.1053C11.2741 19.1053 11.2741 19.1053 11.2741 19.1053C11.2741 19.1053 11.2741 19.1053 11.2741 19.1053C11.2741 19.1053 11.2741 19.1053 11.2741 19.1053V19.1053V19.1053C11.2741 19.1053 11.2741 19.1053 11.2741 19.1053C11.2741 19.1053 11.2741 19.1053 11.2741 19.1053V19.1053V19.1054C11.2741 19.1054 11.2741 19.1054 11.2741 19.1054C11.2741 19.1054 11.2741 19.1054 11.2741 19.1054C11.2741 19.1054 11.2741 19.1054 11.2741 19.1054V19.1054V19.1054C11.2741 19.1054 11.2741 19.1054 11.2741 19.1054C11.2741 19.1054 11.2741 19.1054 11.2741 19.1054V19.1054V19.1054C11.2741 19.1054 11.2741 19.1054 11.2741 19.1054C11.2741 19.1054 11.2741 19.1054 11.2741 19.1054C11.2741 19.1054 11.2741 19.1054 11.2741 19.1054V19.1054V19.1054C11.2741 19.1054 11.2741 19.1054 11.2741 19.1054C11.2741 19.1054 11.2741 19.1054 11.2741 19.1054V19.1054V19.1054C11.2741 19.1054 11.2741 19.1054 11.2741 19.1054C11.2741 19.1054 11.2741 19.1054 11.2741 19.1054C11.2741 19.1054 11.2741 19.1054 11.2741 19.1054V19.1054V19.1054C11.2741 19.1054 11.2741 19.1054 11.2741 19.1054C11.2741 19.1054 11.2741 19.1054 11.2741 19.1054V19.1054V19.1054C11.2741 19.1054 11.2741 19.1054 11.2741 19.1054C11.2741 19.1054 11.2741 19.1054 11.2741 19.1054C11.2741 19.1054 11.2741 19.1054 11.2741 19.1054V19.1054V19.1054C11.2741 19.1054 11.2741 19.1054 11.2741 19.1054C11.2741 19.1054 11.2741 19.1054 11.2741 19.1054V19.1054V19.1054C11.2741 19.1054 11.2741 19.1054 11.2741 19.1054C11.2741 19.1054 11.2741 19.1054 11.2741 19.1054C11.2741 19.1054 11.2741 19.1054 11.2741 19.1054V19.1054V19.1054C11.2741 19.1054 11.2741 19.1054 11.2741 19.1054C11.2741 19.1054 11.2741 19.1054 11.2741 19.1055V19.1055V19.1055C11.2741 19.1055 11.2741 19.1055 11.2741 19.1055C11.2741 19.1055 11.2741 19.1055 11.2741 19.1055C11.2741 19.1055 11.2741 19.1055 11.2741 19.1055V19.1055V19.1055C11.2741 19.1055 11.2741 19.1055 11.2741 19.1055C11.2741 19.1055 11.2741 19.1055 11.2741 19.1055V19.1055V19.1055C11.2741 19.1055 11.2741 19.1055 11.2741 19.1055C11.2741 19.1055 11.2741 19.1055 11.2741 19.1055C11.2741 19.1055 11.2741 19.1055 11.2741 19.1055V19.1055V19.1055C11.2741 19.1055 11.2741 19.1055 11.2741 19.1055C11.2741 19.1055 11.2741 19.1055 11.2741 19.1055V19.1055V19.1055C11.2741 19.1055 11.2741 19.1055 11.2741 19.1055C11.2741 19.1055 11.2741 19.1055 11.2741 19.1055C11.2741 19.1055 11.2741 19.1055 11.2741 19.1055V19.1055V19.1055C11.2741 19.1055 11.2741 19.1055 11.2741 19.1055C11.2741 19.1055 11.2741 19.1055 11.2741 19.1055V19.1055V19.1055C11.2741 19.1055 11.2741 19.1055 11.2741 19.1055C11.2741 19.1055 11.2741 19.1055 11.2741 19.1055C11.2741 19.1055 11.2741 19.1055 11.2741 19.1055V19.1055V19.1055C11.2741 19.1055 11.2741 19.1055 11.2741 19.1055C11.2741 19.1055 11.2741 19.1055 11.2741 19.1055V19.1055V19.1055C11.2741 19.1055 11.2741 19.1055 11.2741 19.1055C11.2741 19.1055 11.2741 19.1055 11.2741 19.1055C11.2741 19.1055 11.2741 19.1055 11.2741 19.1055V19.1055C11.2741 19.1056 11.2741 19.1056 11.2741 19.1056C11.2741 19.1056 11.2741 19.1056 11.2741 19.1056C11.2741 19.1056 11.2741 19.1056 11.2741 19.1056V19.1056V19.1056C11.2741 19.1056 11.2741 19.1056 11.2741 19.1056C11.2741 19.1056 11.2741 19.1056 11.2741 19.1056C11.2741 19.1056 11.2741 19.1056 11.2741 19.1056V19.1056C11.2741 19.1056 11.2741 19.1056 11.2741 19.1056C11.2741 19.1056 11.2741 19.1056 11.2741 19.1056C11.2741 19.1056 11.2741 19.1056 11.2741 19.1056V19.1056V19.1056C11.2741 19.1056 11.2741 19.1056 11.2741 19.1056C11.2741 19.1056 11.2741 19.1056 11.2741 19.1056C11.2741 19.1056 11.2741 19.1056 11.2741 19.1056V19.1056C11.2741 19.1056 11.2741 19.1056 11.2741 19.1056C11.2741 19.1056 11.2741 19.1056 11.2741 19.1056C11.2741 19.1056 11.2741 19.1056 11.2741 19.1056V19.1056V19.1056C11.2741 19.1056 11.2741 19.1056 11.2741 19.1056C11.2741 19.1056 11.2741 19.1056 11.2741 19.1056C11.2741 19.1056 11.2741 19.1056 11.2741 19.1056V19.1056C11.2741 19.1056 11.2741 19.1056 11.2741 19.1056C11.2741 19.1056 11.2741 19.1056 11.2741 19.1056C11.2741 19.1056 11.2741 19.1056 11.2741 19.1056V19.1056V19.1056C11.2741 19.1056 11.2741 19.1056 11.2741 19.1056C11.2741 19.1056 11.2741 19.1056 11.2741 19.1056V19.1056V19.1056C11.2741 19.1056 11.2741 19.1056 11.2741 19.1056C11.2741 19.1056 11.2741 19.1056 11.2741 19.1056C11.2741 19.1056 11.2741 19.1056 11.2741 19.1056V19.1056V19.1056C11.2741 19.1056 11.2741 19.1056 11.2741 19.1056C11.2741 19.1056 11.2741 19.1056 11.2741 19.1056V19.1057V19.1057C11.2741 19.1057 11.2741 19.1057 11.2741 19.1057C11.2741 19.1057 11.2741 19.1057 11.2741 19.1057C11.2741 19.1057 11.2741 19.1057 11.2741 19.1057V19.1057V19.1057C11.2741 19.1057 11.2741 19.1057 11.2741 19.1057C11.2741 19.1057 11.2741 19.1057 11.2741 19.1057V19.1057V19.1057C11.2741 19.1057 11.2741 19.1057 11.2741 19.1057C11.2741 19.1057 11.2741 19.1057 11.2741 19.1057C11.2741 19.1057 11.2741 19.1057 11.2741 19.1057V19.1057V19.1057C11.2741 19.1057 11.2741 19.1057 11.2741 19.1057C11.2741 19.1057 11.2741 19.1057 11.2741 19.1057V19.1057V19.1057C11.2741 19.1057 11.2741 19.1057 11.2741 19.1057C11.2741 19.1057 11.2741 19.1057 11.2741 19.1057C11.2741 19.1057 11.2741 19.1057 11.2741 19.1057V19.1057V19.1057C11.2741 19.1057 11.2741 19.1057 11.2741 19.1057C11.2741 19.1057 11.2741 19.1057 11.2741 19.1057V19.1057V19.1057C11.2741 19.1057 11.2741 19.1057 11.2741 19.1057C11.2741 19.1057 11.2741 19.1057 11.2741 19.1057C11.2741 19.1057 11.2741 19.1057 11.2741 19.1057V19.1057C11.2741 19.1057 11.2741 19.1057 11.2741 19.1057C11.2741 19.1057 11.2741 19.1057 11.2741 19.1057C11.2741 19.1057 11.2741 19.1057 11.2741 19.1057V19.1057H11.4741V19.1057C11.4741 19.1057 11.4741 19.1057 11.4741 19.1057C11.4741 19.1057 11.4741 19.1057 11.4741 19.1057C11.4741 19.1057 11.4741 19.1057 11.4741 19.1057V19.1057C11.4741 19.1057 11.4741 19.1057 11.4741 19.1057C11.4741 19.1057 11.4741 19.1057 11.4741 19.1057C11.4741 19.1057 11.4741 19.1057 11.4741 19.1057V19.1057V19.1057C11.4741 19.1057 11.4741 19.1057 11.4741 19.1057C11.4741 19.1057 11.4741 19.1057 11.4741 19.1057V19.1057V19.1057C11.4741 19.1057 11.4741 19.1057 11.4741 19.1057C11.4741 19.1057 11.4741 19.1057 11.4741 19.1057C11.4741 19.1057 11.4741 19.1057 11.4741 19.1057V19.1057V19.1057C11.4741 19.1057 11.4741 19.1057 11.4741 19.1057C11.4741 19.1057 11.4741 19.1057 11.4741 19.1057V19.1057V19.1057C11.4741 19.1057 11.4741 19.1057 11.4741 19.1057C11.4741 19.1057 11.4741 19.1057 11.4741 19.1057C11.4741 19.1057 11.4741 19.1057 11.4741 19.1057V19.1057V19.1057C11.4741 19.1057 11.4741 19.1057 11.4741 19.1057C11.4741 19.1057 11.4741 19.1057 11.4741 19.1057V19.1057V19.1057C11.4741 19.1057 11.4741 19.1057 11.4741 19.1057C11.4741 19.1057 11.4741 19.1057 11.4741 19.1057C11.4741 19.1057 11.4741 19.1057 11.4741 19.1057V19.1057V19.1056C11.4741 19.1056 11.4741 19.1056 11.4741 19.1056C11.4741 19.1056 11.4741 19.1056 11.4741 19.1056V19.1056V19.1056C11.4741 19.1056 11.4741 19.1056 11.4741 19.1056C11.4741 19.1056 11.4741 19.1056 11.4741 19.1056C11.4741 19.1056 11.4741 19.1056 11.4741 19.1056V19.1056V19.1056C11.4741 19.1056 11.4741 19.1056 11.4741 19.1056C11.4741 19.1056 11.4741 19.1056 11.4741 19.1056V19.1056V19.1056C11.4741 19.1056 11.4741 19.1056 11.4741 19.1056C11.4741 19.1056 11.4741 19.1056 11.4741 19.1056C11.4741 19.1056 11.4741 19.1056 11.4741 19.1056V19.1056C11.4741 19.1056 11.4741 19.1056 11.4741 19.1056C11.4741 19.1056 11.4741 19.1056 11.4741 19.1056C11.4741 19.1056 11.4741 19.1056 11.4741 19.1056V19.1056V19.1056C11.4741 19.1056 11.4741 19.1056 11.4741 19.1056C11.4741 19.1056 11.4741 19.1056 11.4741 19.1056C11.4741 19.1056 11.4741 19.1056 11.4741 19.1056V19.1056C11.4741 19.1056 11.4741 19.1056 11.4741 19.1056C11.4741 19.1056 11.4741 19.1056 11.4741 19.1056C11.4741 19.1056 11.4741 19.1056 11.4741 19.1056V19.1056V19.1056C11.4741 19.1056 11.4741 19.1056 11.4741 19.1056C11.4741 19.1056 11.4741 19.1056 11.4741 19.1056C11.4741 19.1056 11.4741 19.1056 11.4741 19.1056V19.1056C11.4741 19.1056 11.4741 19.1056 11.4741 19.1056C11.4741 19.1056 11.4741 19.1056 11.4741 19.1056C11.4741 19.1056 11.4741 19.1056 11.4741 19.1056V19.1056V19.1056C11.4741 19.1056 11.4741 19.1056 11.4741 19.1056C11.4741 19.1056 11.4741 19.1056 11.4741 19.1056C11.4741 19.1056 11.4741 19.1056 11.4741 19.1055V19.1055C11.4741 19.1055 11.4741 19.1055 11.4741 19.1055C11.4741 19.1055 11.4741 19.1055 11.4741 19.1055C11.4741 19.1055 11.4741 19.1055 11.4741 19.1055V19.1055V19.1055C11.4741 19.1055 11.4741 19.1055 11.4741 19.1055C11.4741 19.1055 11.4741 19.1055 11.4741 19.1055V19.1055V19.1055C11.4741 19.1055 11.4741 19.1055 11.4741 19.1055C11.4741 19.1055 11.4741 19.1055 11.4741 19.1055C11.4741 19.1055 11.4741 19.1055 11.4741 19.1055V19.1055V19.1055C11.4741 19.1055 11.4741 19.1055 11.4741 19.1055C11.4741 19.1055 11.4741 19.1055 11.4741 19.1055V19.1055V19.1055C11.4741 19.1055 11.4741 19.1055 11.4741 19.1055C11.4741 19.1055 11.4741 19.1055 11.4741 19.1055C11.4741 19.1055 11.4741 19.1055 11.4741 19.1055V19.1055V19.1055C11.4741 19.1055 11.4741 19.1055 11.4741 19.1055C11.4741 19.1055 11.4741 19.1055 11.4741 19.1055V19.1055V19.1055C11.4741 19.1055 11.4741 19.1055 11.4741 19.1055C11.4741 19.1055 11.4741 19.1055 11.4741 19.1055C11.4741 19.1055 11.4741 19.1055 11.4741 19.1055V19.1055V19.1055C11.4741 19.1055 11.4741 19.1055 11.4741 19.1055C11.4741 19.1055 11.4741 19.1055 11.4741 19.1055V19.1055V19.1055C11.4741 19.1055 11.4741 19.1055 11.4741 19.1055C11.4741 19.1055 11.4741 19.1055 11.4741 19.1055C11.4741 19.1055 11.4741 19.1055 11.4741 19.1055V19.1055V19.1055C11.4741 19.1054 11.4741 19.1054 11.4741 19.1054C11.4741 19.1054 11.4741 19.1054 11.4741 19.1054V19.1054V19.1054C11.4741 19.1054 11.4741 19.1054 11.4741 19.1054C11.4741 19.1054 11.4741 19.1054 11.4741 19.1054C11.4741 19.1054 11.4741 19.1054 11.4741 19.1054V19.1054V19.1054C11.4741 19.1054 11.4741 19.1054 11.4741 19.1054C11.4741 19.1054 11.4741 19.1054 11.4741 19.1054V19.1054V19.1054C11.4741 19.1054 11.4741 19.1054 11.4741 19.1054C11.4741 19.1054 11.4741 19.1054 11.4741 19.1054C11.4741 19.1054 11.4741 19.1054 11.4741 19.1054V19.1054V19.1054C11.4741 19.1054 11.4741 19.1054 11.4741 19.1054C11.4741 19.1054 11.4741 19.1054 11.4741 19.1054V19.1054V19.1054C11.4741 19.1054 11.4741 19.1054 11.4741 19.1054C11.4741 19.1054 11.4741 19.1054 11.4741 19.1054C11.4741 19.1054 11.4741 19.1054 11.4741 19.1054V19.1054V19.1054C11.4741 19.1054 11.4741 19.1054 11.4741 19.1054C11.4741 19.1054 11.4741 19.1054 11.4741 19.1054V19.1054V19.1054C11.4741 19.1054 11.4741 19.1054 11.4741 19.1054C11.4741 19.1054 11.4741 19.1054 11.4741 19.1054C11.4741 19.1054 11.4741 19.1054 11.4741 19.1054V19.1054V19.1054C11.4741 19.1054 11.4741 19.1054 11.4741 19.1054C11.4741 19.1054 11.4741 19.1054 11.4741 19.1054V19.1054V19.1054C11.4741 19.1054 11.4741 19.1054 11.4741 19.1054C11.4741 19.1054 11.4741 19.1054 11.4741 19.1054C11.4741 19.1054 11.4741 19.1054 11.4741 19.1054V19.1053V19.1053C11.4741 19.1053 11.4741 19.1053 11.4741 19.1053C11.4741 19.1053 11.4741 19.1053 11.4741 19.1053V19.1053V19.1053C11.4741 19.1053 11.4741 19.1053 11.4741 19.1053C11.4741 19.1053 11.4741 19.1053 11.4741 19.1053C11.4741 19.1053 11.4741 19.1053 11.4741 19.1053V19.1053V19.1053C11.4741 19.1053 11.4741 19.1053 11.4741 19.1053C11.4741 19.1053 11.4741 19.1053 11.4741 19.1053V19.1053V19.1053C11.4741 19.1053 11.4741 19.1053 11.4741 19.1053C11.4741 19.1053 11.4741 19.1053 11.4741 19.1053C11.4741 19.1053 11.4741 19.1053 11.4741 19.1053V19.1053V19.1053C11.4741 19.1053 11.4741 19.1053 11.4741 19.1053C11.4741 19.1053 11.4741 19.1053 11.4741 19.1053V19.1053V19.1053C11.4741 19.1053 11.4741 19.1053 11.4741 19.1053C11.4741 19.1053 11.4741 19.1053 11.4741 19.1053C11.4741 19.1053 11.4741 19.1053 11.4741 19.1053V19.1053V19.1053C11.4741 19.1053 11.4741 19.1053 11.4741 19.1053C11.4741 19.1053 11.4741 19.1053 11.4741 19.1053V19.1053V19.1053C11.4741 19.1053 11.4741 19.1053 11.4741 19.1053C11.4741 19.1053 11.4741 19.1053 11.4741 19.1053C11.4741 19.1053 11.4741 19.1053 11.4741 19.1053V19.1053V19.1053C11.4741 19.1053 11.4741 19.1053 11.4741 19.1053C11.4741 19.1053 11.4741 19.1053 11.4741 19.1053V19.1053V19.1053C11.4741 19.1053 11.4741 19.1053 11.4741 19.1053C11.4741 19.1052 11.4741 19.1052 11.4741 19.1052C11.4741 19.1052 11.4741 19.1052 11.4741 19.1052V19.1052V19.1052C11.4741 19.1052 11.4741 19.1052 11.4741 19.1052C11.4741 19.1052 11.4741 19.1052 11.4741 19.1052V19.1052V19.1052C11.4741 19.1052 11.4741 19.1052 11.4741 19.1052C11.4741 19.1052 11.4741 19.1052 11.4741 19.1052C11.4741 19.1052 11.4741 19.1052 11.4741 19.1052V19.1052V19.1052C11.4741 19.1052 11.4741 19.1052 11.4741 19.1052C11.4741 19.1052 11.4741 19.1052 11.4741 19.1052C11.4741 19.1052 11.4741 19.1052 11.4741 19.1052V19.1052C11.4741 19.1052 11.4741 19.1052 11.4741 19.1052C11.4741 19.1052 11.4741 19.1052 11.4741 19.1052C11.4741 19.1052 11.4741 19.1052 11.4741 19.1052V19.1052V19.1052C11.4741 19.1052 11.4741 19.1052 11.4741 19.1052C11.4741 19.1052 11.4741 19.1052 11.4741 19.1052C11.4741 19.1052 11.4741 19.1052 11.4741 19.1052V19.1052C11.4741 19.1052 11.4741 19.1052 11.4741 19.1052C11.4741 19.1052 11.4741 19.1052 11.4741 19.1052C11.4741 19.1052 11.4741 19.1052 11.4741 19.1052V19.1052V19.1052C11.4741 19.1052 11.4741 19.1052 11.4741 19.1052C11.4741 19.1052 11.4741 19.1052 11.4741 19.1052C11.4741 19.1052 11.4741 19.1052 11.4741 19.1052V19.1052C11.4741 19.1052 11.4741 19.1052 11.4741 19.1052C11.4741 19.1052 11.4741 19.1052 11.4741 19.1052C11.4741 19.1052 11.4741 19.1052 11.4741 19.1052V19.1052V19.1052C11.4741 19.1052 11.4741 19.1052 11.4741 19.1052C11.4741 19.1052 11.4741 19.1052 11.4741 19.1052C11.4741 19.1052 11.4741 19.1052 11.4741 19.1052V19.1051C11.4741 19.1051 11.4741 19.1051 11.4741 19.1051C11.4741 19.1051 11.4741 19.1051 11.4741 19.1051C11.4741 19.1051 11.4741 19.1051 11.4741 19.1051V19.1051V19.1051C11.4741 19.1051 11.4741 19.1051 11.4741 19.1051C11.4741 19.1051 11.4741 19.1051 11.4741 19.1051C11.4741 19.1051 11.4741 19.1051 11.4741 19.1051V19.1051C11.4741 19.1051 11.4741 19.1051 11.4741 19.1051C11.4741 19.1051 11.4741 19.1051 11.4741 19.1051C11.4741 19.1051 11.4741 19.1051 11.4741 19.1051V19.1051V19.1051C11.4741 19.1051 11.4741 19.1051 11.4741 19.1051C11.4741 19.1051 11.4741 19.1051 11.4741 19.1051C11.4741 19.1051 11.4741 19.1051 11.4741 19.1051V19.1051C11.4741 19.1051 11.4741 19.1051 11.4741 19.1051C11.4741 19.1051 11.4741 19.1051 11.4741 19.1051C11.4741 19.1051 11.4741 19.1051 11.4741 19.1051V19.1051V19.1051C11.4741 19.1051 11.4741 19.1051 11.4741 19.1051C11.4741 19.1051 11.4741 19.1051 11.4741 19.1051C11.4741 19.1051 11.4741 19.1051 11.4741 19.1051V19.1051C11.4741 19.1051 11.4741 19.1051 11.4741 19.1051C11.4741 19.1051 11.4741 19.1051 11.4741 19.1051C11.4741 19.1051 11.4741 19.1051 11.4741 19.1051V19.1051V19.1051C11.4741 19.1051 11.4741 19.1051 11.4741 19.1051C11.4741 19.1051 11.4741 19.1051 11.4741 19.1051C11.4741 19.1051 11.4741 19.1051 11.4741 19.1051V19.1051C11.4741 19.1051 11.4741 19.1051 11.4741 19.1051C11.4741 19.1051 11.4741 19.1051 11.4741 19.1051C11.4741 19.1051 11.4741 19.1051 11.4741 19.1051V19.1051V19.1051C11.4741 19.1051 11.4741 19.1051 11.4741 19.1051C11.4741 19.105 11.4741 19.105 11.4741 19.105C11.4741 19.105 11.4741 19.105 11.4741 19.105V19.105V19.105C11.4741 19.105 11.4741 19.105 11.4741 19.105C11.4741 19.105 11.4741 19.105 11.4741 19.105V19.105V19.105C11.4741 19.105 11.4741 19.105 11.4741 19.105C11.4741 19.105 11.4741 19.105 11.4741 19.105C11.4741 19.105 11.4741 19.105 11.4741 19.105V19.105V19.105C11.4741 19.105 11.4741 19.105 11.4741 19.105C11.4741 19.105 11.4741 19.105 11.4741 19.105V19.105V19.105C11.4741 19.105 11.4741 19.105 11.4741 19.105C11.4741 19.105 11.4741 19.105 11.4741 19.105C11.4741 19.105 11.4741 19.105 11.4741 19.105V19.105V19.105C11.4741 19.105 11.4741 19.105 11.4741 19.105C11.4741 19.105 11.4741 19.105 11.4741 19.105V19.105V19.105C11.4741 19.105 11.4741 19.105 11.4741 19.105C11.4741 19.105 11.4741 19.105 11.4741 19.105C11.4741 19.105 11.4741 19.105 11.4741 19.105V19.105V19.105C11.4741 19.105 11.4741 19.105 11.4741 19.105C11.4741 19.105 11.4741 19.105 11.4741 19.105V19.105V19.105C11.4741 19.105 11.4741 19.105 11.4741 19.105C11.4741 19.105 11.4741 19.105 11.4741 19.105C11.4741 19.105 11.4741 19.105 11.4741 19.105V19.105V19.105C11.4741 19.105 11.4741 19.105 11.4741 19.105C11.4741 19.105 11.4741 19.105 11.4741 19.105V19.1049V19.1049C11.4741 19.1049 11.4741 19.1049 11.4741 19.1049C11.4741 19.1049 11.4741 19.1049 11.4741 19.1049C11.4741 19.1049 11.4741 19.1049 11.4741 19.1049V19.1049V19.1049C11.4741 19.1049 11.4741 19.1049 11.4741 19.1049C11.4741 19.1049 11.4741 19.1049 11.4741 19.1049V19.1049V19.1049C11.4741 19.1049 11.4741 19.1049 11.4741 19.1049C11.4741 19.1049 11.4741 19.1049 11.4741 19.1049C11.4741 19.1049 11.4741 19.1049 11.4741 19.1049V19.1049V19.1049C11.4741 19.1049 11.4741 19.1049 11.4741 19.1049C11.4741 19.1049 11.4741 19.1049 11.4741 19.1049V19.1049V19.1049C11.4741 19.1049 11.4741 19.1049 11.4741 19.1049C11.4741 19.1049 11.4741 19.1049 11.4741 19.1049C11.4741 19.1049 11.4741 19.1049 11.4741 19.1049V19.1049V19.1049C11.4741 19.1049 11.4741 19.1049 11.4741 19.1049C11.4741 19.1049 11.4741 19.1049 11.4741 19.1049V19.1049V19.1049C11.4741 19.1049 11.4741 19.1049 11.4741 19.1049C11.4741 19.1049 11.4741 19.1049 11.4741 19.1049C11.4741 19.1049 11.4741 19.1049 11.4741 19.1049V19.1049V19.1049C11.4741 19.1049 11.4741 19.1049 11.4741 19.1049C11.4741 19.1049 11.4741 19.1049 11.4741 19.1049V19.1049V19.1049C11.4741 19.1049 11.4741 19.1049 11.4741 19.1049C11.4741 19.1049 11.4741 19.1049 11.4741 19.1049C11.4741 19.1049 11.4741 19.1049 11.4741 19.1049V19.1049V19.1049C11.4741 19.1049 11.4741 19.1049 11.4741 19.1048C11.4741 19.1048 11.4741 19.1048 11.4741 19.1048V19.1048V19.1048C11.4741 19.1048 11.4741 19.1048 11.4741 19.1048C11.4741 19.1048 11.4741 19.1048 11.4741 19.1048C11.4741 19.1048 11.4741 19.1048 11.4741 19.1048V19.1048V19.1048C11.4741 19.1048 11.4741 19.1048 11.4741 19.1048C11.4741 19.1048 11.4741 19.1048 11.4741 19.1048V19.1048V19.1048C11.4741 19.1048 11.4741 19.1048 11.4741 19.1048C11.4741 19.1048 11.4741 19.1048 11.4741 19.1048C11.4741 19.1048 11.4741 19.1048 11.4741 19.1048V19.1048V19.1048C11.4741 19.1048 11.4741 19.1048 11.4741 19.1048C11.4741 19.1048 11.4741 19.1048 11.4741 19.1048V19.1048V19.1048C11.4741 19.1048 11.4741 19.1048 11.4741 19.1048C11.4741 19.1048 11.4741 19.1048 11.4741 19.1048C11.4741 19.1048 11.4741 19.1048 11.4741 19.1048V19.1048V19.1048C11.4741 19.1048 11.4741 19.1048 11.4741 19.1048C11.4741 19.1048 11.4741 19.1048 11.4741 19.1048V19.1048V19.1048C11.4741 19.1048 11.4741 19.1048 11.4741 19.1048C11.4741 19.1048 11.4741 19.1048 11.4741 19.1048C11.4741 19.1048 11.4741 19.1048 11.4741 19.1048V19.1048V19.1048C11.4741 19.1048 11.4741 19.1048 11.4741 19.1048C11.4741 19.1048 11.4741 19.1048 11.4741 19.1048V19.1048V19.1048C11.4741 19.1048 11.4741 19.1048 11.4741 19.1048C11.4741 19.1048 11.4741 19.1048 11.4741 19.1048C11.4741 19.1048 11.4741 19.1048 11.4741 19.1048V19.1047V19.1047C11.4741 19.1047 11.4741 19.1047 11.4741 19.1047C11.4741 19.1047 11.4741 19.1047 11.4741 19.1047V19.1047V19.1047C11.4741 19.1047 11.4741 19.1047 11.4741 19.1047C11.4741 19.1047 11.4741 19.1047 11.4741 19.1047C11.4741 19.1047 11.4741 19.1047 11.4741 19.1047V19.1047C11.4741 19.1047 11.4741 19.1047 11.4741 19.1047C11.4741 19.1047 11.4741 19.1047 11.4741 19.1047C11.4741 19.1047 11.4741 19.1047 11.4741 19.1047V19.1047V19.1047C11.4741 19.1047 11.4741 19.1047 11.4741 19.1047C11.4741 19.1047 11.4741 19.1047 11.4741 19.1047C11.4741 19.1047 11.4741 19.1047 11.4741 19.1047V19.1047C11.4741 19.1047 11.4741 19.1047 11.4741 19.1047C11.4741 19.1047 11.4741 19.1047 11.4741 19.1047C11.4741 19.1047 11.4741 19.1047 11.4741 19.1047V19.1047V19.1047C11.4741 19.1047 11.4741 19.1047 11.4741 19.1047C11.4741 19.1047 11.4741 19.1047 11.4741 19.1047C11.4741 19.1047 11.4741 19.1047 11.4741 19.1047V19.1047C11.4741 19.1047 11.4741 19.1047 11.4741 19.1047C11.4741 19.1047 11.4741 19.1047 11.4741 19.1047C11.4741 19.1047 11.4741 19.1047 11.4741 19.1047V19.1047V19.1047C11.4741 19.1047 11.4741 19.1047 11.4741 19.1047C11.4741 19.1047 11.4741 19.1047 11.4741 19.1047C11.4741 19.1047 11.4741 19.1047 11.4741 19.1047V19.1047C11.4741 19.1047 11.4741 19.1047 11.4741 19.1047C11.4741 19.1047 11.4741 19.1047 11.4741 19.1047C11.4741 19.1047 11.4741 19.1047 11.4741 19.1047V19.1047V19.1047C11.4741 19.1047 11.4741 19.1047 11.4741 19.1047C11.4741 19.1047 11.4741 19.1047 11.4741 19.1046V19.1046V19.1046C11.4741 19.1046 11.4741 19.1046 11.4741 19.1046C11.4741 19.1046 11.4741 19.1046 11.4741 19.1046C11.4741 19.1046 11.4741 19.1046 11.4741 19.1046V19.1046V19.1046C11.4741 19.1046 11.4741 19.1046 11.4741 19.1046C11.4741 19.1046 11.4741 19.1046 11.4741 19.1046V19.1046V19.1046C11.4741 19.1046 11.4741 19.1046 11.4741 19.1046C11.4741 19.1046 11.4741 19.1046 11.4741 19.1046C11.4741 19.1046 11.4741 19.1046 11.4741 19.1046V19.1046V19.1046C11.4741 19.1046 11.4741 19.1046 11.4741 19.1046C11.4741 19.1046 11.4741 19.1046 11.4741 19.1046V19.1046V19.1046C11.4741 19.1046 11.4741 19.1046 11.4741 19.1046C11.4741 19.1046 11.4741 19.1046 11.4741 19.1046C11.4741 19.1046 11.4741 19.1046 11.4741 19.1046V19.1046V19.1046C11.4741 19.1046 11.4741 19.1046 11.4741 19.1046C11.4741 19.1046 11.4741 19.1046 11.4741 19.1046V19.1046V19.1046C11.4741 19.1046 11.4741 19.1046 11.4741 19.1046C11.4741 19.1046 11.4741 19.1046 11.4741 19.1046C11.4741 19.1046 11.4741 19.1046 11.4741 19.1046V19.1046V19.1046C11.4741 19.1046 11.4741 19.1046 11.4741 19.1046C11.4741 19.1046 11.4741 19.1046 11.4741 19.1046V19.1046V19.1046C11.4741 19.1046 11.4741 19.1046 11.4741 19.1046C11.4741 19.1046 11.4741 19.1046 11.4741 19.1046C11.4741 19.1046 11.4741 19.1046 11.4741 19.1046V19.1046C11.4741 19.1045 11.4741 19.1045 11.4741 19.1045C11.4741 19.1045 11.4741 19.1045 11.4741 19.1045C11.4741 19.1045 11.4741 19.1045 11.4741 19.1045V19.1045H11.2741ZM11.4741 19.1045L11.4741 9.95096H11.2741L11.2741 19.1045H11.4741ZM11.4741 9.95096C11.4741 9.33214 11.9757 8.83048 12.5945 8.83048V8.63048C11.8653 8.63048 11.2741 9.22168 11.2741 9.95096H11.4741ZM12.5945 8.83048C13.2134 8.83048 13.715 9.33214 13.715 9.95096H13.915C13.915 9.22168 13.3238 8.63048 12.5945 8.63048V8.83048ZM13.715 9.95096V19.1045H13.915V9.95096H13.715ZM9.54334 23.4762C11.9575 23.4762 13.915 21.5187 13.915 19.1045H13.715C13.715 21.4082 11.847 23.2762 9.54334 23.2762V23.4762ZM5.17167 19.1045C5.17167 21.5187 7.12919 23.4762 9.54334 23.4762V23.2762C7.23965 23.2762 5.37167 21.4082 5.37167 19.1045H5.17167ZM5.17167 8.12025V19.1045H5.37167V8.12025H5.17167ZM5.24656 7.68087C5.19803 7.81845 5.17167 7.96638 5.17167 8.12025H5.37167C5.37167 7.98935 5.39407 7.86391 5.43517 7.7474L5.24656 7.68087ZM5.17167 7.30802C5.17167 7.46189 5.19803 7.60982 5.24656 7.7474L5.43517 7.68087C5.39407 7.56436 5.37167 7.43892 5.37167 7.30802H5.17167Z" fill="#F5F7F7"/>
</svg>
