<svg width="22" height="22" viewBox="0 0 22 22" fill="none" xmlns="http://www.w3.org/2000/svg">
<path fill-rule="evenodd" clip-rule="evenodd" d="M11 2.05725C6.06106 2.05725 2.05725 6.06106 2.05725 11C2.05725 15.9389 6.06106 19.9427 11 19.9427C15.9389 19.9427 19.9427 15.9389 19.9427 11C19.9427 6.06106 15.9389 2.05725 11 2.05725ZM0 11C0 4.92487 4.92487 0 11 0C17.0751 0 22 4.92487 22 11C22 17.0751 17.0751 22 11 22C4.92487 22 0 17.0751 0 11Z" fill="#169953"/>
<path fill-rule="evenodd" clip-rule="evenodd" d="M10.4752 5.4895C11.0549 5.4895 11.5248 5.95943 11.5248 6.53912V10.8304L13.8765 12.4664C14.3524 12.7974 14.4698 13.4515 14.1388 13.9274C13.8078 14.4033 13.1536 14.5207 12.6778 14.1897L9.8758 12.2405C9.59374 12.0443 9.42557 11.7225 9.42557 11.3789V6.53912C9.42557 5.95943 9.8955 5.4895 10.4752 5.4895Z" fill="#169953"/>
</svg>
